<?xml version="1.0" standalone="no"?>
<!DOCTYPE svg PUBLIC "-//W3C//DTD SVG 20010904//EN"
 "http://www.w3.org/TR/2001/REC-SVG-20010904/DTD/svg10.dtd">
<svg version="1.0" xmlns="http://www.w3.org/2000/svg"
 width="600.000000pt" height="620.000000pt" viewBox="0 0 600.000000 620.000000"
 preserveAspectRatio="xMidYMid meet">
<g transform="translate(0.000000,620.000000) scale(0.100000,-0.100000)"
fill="#000000" stroke="none">
<path d="M2 3098 l3 -3103 2 3097 3 3098 2998 3 2997 2 -3002 3 -3003 2 2
-3102z"/>
<path d="M2689 5966 c-2 -2 -33 -7 -69 -11 -36 -4 -85 -11 -110 -17 -25 -5
-52 -11 -60 -13 -8 -2 -58 -13 -111 -24 -139 -31 -434 -132 -547 -189 -286
-143 -385 -197 -412 -227 -14 -15 -52 -43 -85 -63 -74 -45 -231 -178 -350
-297 -95 -96 -265 -289 -265 -301 0 -4 -16 -26 -35 -50 -19 -23 -35 -45 -35
-49 0 -3 -5 -11 -11 -18 -32 -35 -139 -222 -213 -372 -118 -241 -218 -548
-246 -760 -5 -38 -15 -92 -22 -120 -17 -69 -17 -713 0 -770 7 -22 15 -67 18
-100 3 -33 9 -76 14 -95 8 -29 17 -70 36 -165 6 -33 102 -304 134 -380 40 -94
134 -280 153 -304 6 -7 16 -21 22 -32 8 -15 104 -171 140 -228 6 -9 20 -31 31
-49 12 -18 42 -56 66 -85 25 -29 70 -80 100 -115 172 -199 523 -479 738 -589
30 -16 93 -49 140 -75 47 -26 112 -57 145 -69 33 -12 84 -32 112 -45 29 -13
92 -35 140 -49 49 -14 122 -35 163 -47 41 -11 91 -23 110 -25 19 -2 60 -9 90
-15 87 -18 108 -21 235 -33 33 -3 92 -11 131 -17 112 -16 429 3 621 38 45 8
101 17 125 20 150 19 477 128 663 221 78 38 237 122 263 138 169 103 371 262
515 404 134 131 297 310 310 341 4 8 15 27 25 41 9 15 37 59 62 98 25 40 53
84 62 99 10 15 21 34 25 42 3 8 10 17 14 20 14 10 118 215 162 320 49 118 91
251 163 512 7 25 14 70 15 100 1 29 8 76 15 103 34 140 36 643 4 790 -5 22
-14 81 -20 130 -6 50 -22 122 -34 160 -13 39 -28 93 -34 120 -17 81 -87 283
-127 370 -73 158 -109 231 -129 260 -12 16 -25 37 -31 47 -48 83 -100 164
-107 166 -4 2 -8 8 -8 14 0 5 -8 20 -17 33 -10 12 -25 33 -33 45 -64 96 -319
368 -435 465 -33 28 -78 66 -100 86 -22 19 -62 49 -90 66 -27 16 -67 45 -88
64 -52 46 -248 151 -483 259 -96 45 -371 136 -480 160 -54 12 -103 23 -109 24
-26 6 -124 26 -160 32 -43 8 -699 17 -706 10z m701 -29 c153 -20 453 -97 590
-151 32 -13 68 -27 80 -31 21 -7 61 -26 168 -76 68 -33 125 -59 128 -59 11 0
222 -127 259 -155 22 -17 60 -44 85 -60 160 -104 481 -423 627 -623 53 -73 81
-115 169 -257 112 -182 215 -425 273 -646 11 -41 28 -99 37 -129 19 -67 30
-118 38 -187 3 -29 10 -74 15 -100 24 -122 33 -431 18 -628 -7 -87 -12 -125
-31 -245 -2 -14 -7 -48 -10 -76 -4 -28 -19 -93 -35 -145 -16 -52 -34 -116 -41
-144 -14 -58 -46 -156 -66 -202 -8 -17 -14 -34 -14 -38 0 -22 -172 -344 -240
-450 -8 -12 -39 -63 -69 -111 -75 -121 -159 -219 -358 -415 -122 -121 -208
-195 -314 -272 -171 -124 -443 -277 -584 -328 -27 -9 -86 -33 -130 -53 -44
-19 -91 -37 -105 -40 -48 -8 -85 -18 -160 -41 -41 -12 -109 -27 -150 -33 -41
-6 -86 -13 -100 -16 -14 -4 -68 -11 -120 -17 -52 -5 -122 -13 -155 -17 -117
-14 -359 -8 -520 13 -95 12 -129 17 -148 21 -12 3 -62 12 -111 19 -49 8 -117
23 -150 34 -34 11 -92 27 -130 36 -38 9 -83 23 -100 30 -17 7 -51 22 -76 33
-25 11 -79 34 -120 51 -41 18 -90 40 -107 49 -18 9 -79 41 -135 71 -118 62
-165 92 -338 219 -124 92 -369 321 -466 436 -27 33 -63 75 -80 95 -17 20 -55
76 -85 125 -30 48 -61 99 -69 111 -69 107 -169 293 -227 425 -34 75 -118 317
-127 366 -2 10 -13 57 -24 104 -11 47 -23 114 -27 150 -3 36 -10 83 -15 105
-31 138 -31 631 0 770 5 22 12 67 15 100 4 33 9 68 11 77 3 9 7 25 9 35 33
165 101 391 147 493 62 136 148 311 174 350 16 25 33 52 39 62 94 154 169 262
215 308 8 9 47 54 87 100 77 92 179 193 283 280 36 30 76 65 90 78 14 12 48
37 75 54 28 18 70 48 95 69 25 20 64 46 88 58 24 12 68 38 97 57 30 19 65 38
78 43 13 5 84 39 158 75 128 62 373 150 489 176 30 6 92 21 138 31 176 42 253
47 592 44 179 -1 345 -5 370 -8z"/>
<path d="M2755 5910 c-33 -4 -89 -11 -125 -15 -183 -20 -217 -26 -310 -54 -36
-11 -99 -29 -140 -40 -281 -73 -703 -289 -910 -465 -36 -31 -69 -56 -74 -56
-8 0 -29 -17 -141 -119 -40 -37 -129 -137 -261 -292 -63 -76 -224 -292 -224
-303 0 -2 -24 -44 -53 -93 -28 -49 -81 -152 -115 -229 -35 -76 -67 -146 -71
-154 -30 -62 -138 -488 -155 -615 -33 -236 -39 -480 -18 -655 27 -220 22 -191
51 -315 12 -49 31 -130 42 -180 46 -201 164 -492 259 -640 11 -16 37 -64 59
-105 21 -41 51 -86 66 -100 15 -14 43 -52 63 -85 45 -74 269 -333 348 -400
130 -112 160 -138 189 -164 30 -26 99 -76 133 -96 9 -6 50 -33 90 -60 40 -28
81 -54 90 -60 10 -5 32 -20 50 -33 52 -38 217 -111 367 -164 256 -91 319 -110
395 -124 16 -3 88 -19 130 -29 14 -4 59 -11 100 -16 41 -6 100 -14 130 -19 71
-11 487 -11 565 0 33 5 92 13 130 19 39 5 81 12 95 16 14 3 45 10 70 15 125
26 173 38 245 64 39 13 133 47 210 74 127 44 272 111 350 162 17 10 40 25 52
32 12 7 54 33 94 58 39 25 79 50 88 55 20 13 73 47 86 57 6 4 33 27 61 50 28
24 77 65 110 92 76 64 205 194 269 271 28 33 66 78 86 100 19 22 52 67 73 100
20 33 56 88 79 122 134 199 237 392 252 473 1 3 12 28 24 55 30 63 69 173 76
215 3 19 8 36 10 40 2 3 6 17 9 31 3 13 10 47 16 74 6 28 13 59 15 70 2 11 9
43 15 70 6 28 14 61 16 75 3 14 7 32 9 40 2 8 7 53 10 100 4 46 9 88 11 92 7
10 6 401 0 443 -2 17 -9 73 -15 125 -11 96 -16 128 -25 158 -3 9 -7 28 -10 42
-20 104 -79 337 -99 390 -57 150 -150 358 -195 435 -9 17 -40 63 -67 103 -28
40 -54 80 -60 90 -61 100 -131 191 -270 352 -124 142 -241 255 -325 310 -12 8
-48 35 -79 60 -62 50 -118 90 -125 90 -2 0 -28 16 -57 36 -71 48 -416 221
-499 250 -36 12 -90 32 -121 43 -31 11 -67 22 -80 25 -46 8 -84 18 -139 36
-73 24 -141 38 -220 45 -36 4 -77 8 -92 11 -147 23 -478 31 -613 14z m445 -13
c22 -5 91 -13 175 -21 134 -13 206 -25 275 -45 19 -6 68 -20 109 -31 185 -50
307 -98 511 -202 224 -114 327 -174 396 -233 23 -19 81 -66 130 -104 49 -38
115 -93 146 -123 89 -84 388 -439 388 -462 0 -3 16 -30 37 -59 71 -101 78
-112 90 -132 33 -52 104 -199 138 -284 20 -52 47 -113 59 -136 29 -53 58 -144
72 -225 5 -28 37 -163 59 -252 8 -31 19 -105 25 -164 6 -59 13 -111 16 -116 7
-11 7 -464 1 -475 -3 -4 -8 -37 -12 -73 -10 -102 -19 -151 -70 -375 -20 -90
-23 -100 -40 -166 -15 -62 -20 -75 -69 -182 -14 -32 -26 -62 -26 -67 0 -14
-126 -265 -158 -314 -36 -56 -50 -78 -59 -96 -4 -8 -11 -19 -15 -25 -5 -5 -37
-52 -72 -103 -115 -169 -307 -379 -481 -526 -44 -37 -93 -79 -109 -92 -15 -13
-29 -24 -31 -24 -2 0 -39 -24 -82 -53 -44 -30 -86 -57 -94 -61 -17 -8 -40 -22
-95 -58 -22 -14 -97 -54 -165 -89 -108 -54 -174 -79 -439 -171 -50 -17 -118
-34 -300 -74 -155 -33 -227 -39 -510 -39 -283 0 -352 5 -512 40 -38 8 -101 22
-140 31 -80 17 -154 38 -208 59 -49 19 -74 28 -80 30 -41 10 -131 43 -197 71
-17 8 -35 14 -40 14 -19 0 -204 99 -274 147 -39 26 -98 65 -132 87 -153 96
-389 303 -522 457 -50 57 -96 110 -103 118 -22 22 -92 120 -92 126 0 4 -20 30
-43 58 -49 58 -69 93 -203 352 -100 192 -155 342 -190 515 -3 14 -10 43 -15
65 -6 22 -12 47 -13 55 -2 13 -28 128 -31 140 -1 3 -5 32 -9 65 -4 33 -10 71
-12 85 -23 145 -28 361 -10 520 21 192 29 250 51 345 14 61 35 153 46 205 24
110 59 218 102 310 62 135 158 326 182 365 14 22 28 47 32 55 15 32 171 240
237 316 39 44 101 116 138 160 75 88 138 145 278 253 52 41 100 79 105 86 6 7
35 27 65 45 30 19 72 46 92 62 57 44 430 220 554 261 250 83 405 119 574 132
25 2 61 6 80 9 19 3 62 8 95 12 33 3 62 8 65 11 6 6 295 -3 330 -10z"/>
<path d="M2758 5865 c-2 -2 -48 -9 -103 -14 -55 -6 -109 -13 -120 -15 -171
-38 -309 -75 -417 -112 -73 -25 -146 -50 -163 -55 -51 -15 -305 -143 -405
-204 -107 -64 -202 -131 -241 -169 -15 -14 -51 -40 -80 -57 -60 -36 -242 -217
-360 -355 -115 -136 -151 -185 -274 -379 -46 -72 -174 -327 -198 -395 -9 -25
-30 -85 -47 -135 -17 -49 -34 -97 -37 -105 -10 -24 -12 -32 -28 -100 -25 -107
-36 -162 -41 -210 -2 -25 -9 -70 -16 -100 -6 -30 -13 -64 -15 -75 -3 -11 -6
-139 -8 -285 -3 -228 -1 -280 16 -370 11 -58 22 -125 24 -150 13 -109 83 -372
125 -465 5 -11 18 -47 28 -80 11 -33 32 -82 46 -110 14 -27 43 -89 65 -138 22
-48 50 -102 63 -119 13 -18 28 -40 33 -50 6 -9 33 -50 60 -90 28 -40 52 -78
55 -84 3 -6 37 -49 75 -94 223 -263 328 -369 471 -473 54 -39 114 -85 131
-101 37 -33 118 -85 178 -115 22 -11 77 -42 121 -68 45 -27 94 -54 110 -60 89
-34 167 -65 229 -91 39 -16 111 -39 160 -51 50 -12 108 -28 130 -36 45 -15
259 -52 350 -60 33 -3 87 -9 120 -13 79 -9 332 -9 415 1 36 4 88 9 115 12 89
10 299 46 352 61 29 8 87 24 130 35 88 23 166 50 221 78 20 10 67 29 105 41
37 13 102 43 145 68 42 24 102 58 132 74 77 40 149 87 201 130 24 20 80 65
124 99 162 126 240 199 339 314 37 44 80 94 94 110 58 66 109 133 142 185 19
30 37 57 40 60 32 28 173 293 212 400 11 30 33 82 47 115 26 56 35 85 91 275
42 142 80 342 87 460 6 84 8 368 5 502 -1 48 -8 115 -16 150 -8 35 -17 87 -20
117 -8 71 -12 86 -47 206 -56 192 -82 270 -104 320 -12 28 -32 75 -43 106 -21
57 -74 162 -96 189 -7 8 -25 40 -40 70 -64 123 -161 269 -240 361 -17 19 -53
62 -81 95 -81 95 -283 294 -301 294 -5 0 -36 23 -69 51 -129 108 -169 136
-348 243 -51 30 -237 122 -297 146 -30 12 -64 26 -75 30 -79 34 -351 115 -420
125 -11 2 -42 9 -70 15 -77 18 -84 19 -175 32 -76 10 -584 21 -592 13z m577
-30 c44 -6 157 -29 350 -69 33 -7 78 -18 100 -25 91 -30 273 -95 315 -114 95
-42 287 -141 328 -168 24 -16 45 -29 48 -29 2 0 22 -12 43 -27 21 -16 49 -35
62 -43 12 -8 39 -29 58 -46 20 -17 81 -65 136 -106 97 -74 247 -221 351 -343
69 -82 184 -232 184 -241 0 -4 10 -21 23 -38 12 -17 38 -60 57 -96 18 -36 44
-82 57 -103 28 -44 103 -196 103 -208 0 -8 39 -100 59 -139 4 -8 18 -49 30
-90 12 -41 32 -109 45 -150 22 -69 35 -131 66 -310 33 -194 35 -678 3 -803 -8
-31 -14 -67 -15 -80 -1 -44 -30 -184 -53 -252 -13 -38 -26 -86 -30 -105 -9
-47 -27 -98 -74 -203 -12 -26 -32 -76 -45 -110 -33 -88 -66 -157 -92 -192 -12
-16 -34 -55 -49 -85 -15 -30 -40 -71 -54 -90 -15 -19 -42 -59 -59 -87 -49 -81
-311 -380 -398 -453 -42 -36 -88 -75 -103 -88 -14 -13 -53 -44 -86 -69 -33
-26 -83 -66 -111 -89 -28 -24 -103 -71 -165 -105 -63 -33 -116 -64 -119 -68
-10 -13 -127 -69 -190 -91 -36 -12 -85 -32 -110 -45 -53 -27 -135 -54 -220
-70 -3 0 -35 -11 -72 -23 -37 -12 -78 -22 -92 -22 -14 0 -55 -6 -93 -14 -81
-17 -130 -25 -198 -32 -27 -3 -88 -9 -135 -14 -166 -19 -451 -4 -660 35 -47 8
-105 18 -130 21 -25 3 -76 16 -115 29 -38 13 -86 26 -105 30 -61 11 -133 36
-180 60 -25 13 -68 31 -95 40 -68 23 -150 62 -210 100 -27 18 -83 50 -124 71
-98 52 -100 53 -157 100 -27 22 -85 67 -129 100 -95 70 -240 203 -310 283 -27
32 -88 102 -135 156 -47 54 -103 126 -125 161 -22 34 -61 93 -86 131 -47 69
-81 133 -163 306 -97 203 -187 504 -201 668 -2 20 -10 63 -17 95 -22 86 -23
112 -23 414 0 226 3 287 17 340 10 36 20 88 23 115 18 150 36 220 105 427 44
127 176 413 235 507 41 65 137 206 174 256 116 155 372 417 481 492 36 25 79
58 95 73 32 29 211 150 222 150 4 0 14 6 22 14 18 15 225 120 319 160 79 35
313 114 355 121 18 3 46 10 62 14 103 30 235 55 355 67 36 3 67 8 70 11 7 7
516 -4 575 -12z"/>
<path d="M2870 5817 c-4 -4 -100 -15 -190 -22 -14 -1 -47 -5 -75 -8 -27 -4
-75 -9 -105 -13 -30 -3 -91 -17 -135 -31 -44 -14 -118 -36 -165 -48 -47 -12
-123 -36 -170 -54 -47 -17 -86 -31 -88 -31 -12 2 -332 -169 -382 -204 -36 -25
-92 -62 -125 -82 -110 -68 -218 -160 -380 -320 -179 -177 -219 -228 -417 -532
-53 -82 -137 -255 -201 -417 -46 -116 -96 -298 -132 -475 -2 -8 -6 -26 -9 -40
-6 -23 -14 -90 -34 -270 -10 -88 -9 -329 1 -415 5 -38 10 -95 13 -125 3 -30
12 -84 20 -120 8 -36 19 -85 24 -110 41 -200 84 -347 127 -434 14 -27 33 -74
43 -106 49 -153 260 -484 444 -695 79 -90 272 -281 328 -323 24 -18 75 -57
115 -87 40 -30 75 -55 79 -55 4 0 30 -17 58 -39 28 -21 78 -51 111 -67 33 -16
74 -38 90 -50 17 -11 53 -29 80 -39 28 -10 68 -28 90 -41 22 -12 81 -36 130
-53 50 -16 130 -43 178 -60 48 -17 98 -33 110 -35 12 -2 74 -16 137 -31 63
-15 133 -29 155 -31 22 -3 51 -7 65 -9 42 -7 250 -19 340 -19 88 -1 296 11
340 19 14 2 43 6 65 9 22 2 92 16 155 31 63 15 122 28 131 30 64 13 308 99
397 141 40 18 91 40 115 48 60 20 310 172 425 258 53 40 115 85 137 100 40 27
221 208 303 303 47 54 160 203 209 275 140 208 199 314 234 423 11 33 23 65
27 71 26 35 93 232 117 344 6 29 36 166 41 187 36 156 58 404 51 575 -4 74 -8
146 -11 160 -2 14 -8 59 -11 100 -9 95 -10 98 -20 140 -10 41 -9 35 -19 80
-28 128 -51 224 -69 285 -11 39 -21 72 -22 75 -1 3 -7 16 -12 30 -6 14 -31 75
-56 135 -25 61 -62 144 -83 185 -50 101 -269 429 -341 511 -32 37 -69 79 -84
95 -106 120 -369 337 -507 419 -9 6 -52 34 -95 62 -82 56 -294 166 -387 201
-30 11 -84 32 -120 45 -36 14 -81 28 -100 31 -19 4 -78 20 -130 36 -116 35
-122 36 -290 56 -74 8 -153 18 -175 21 -58 7 -339 16 -345 10z m315 -27 c50
-5 106 -11 125 -14 60 -8 123 -15 184 -22 32 -3 69 -10 82 -15 13 -4 24 -6 24
-4 0 3 30 -6 68 -20 37 -13 92 -29 122 -35 30 -6 64 -15 75 -19 11 -5 54 -21
95 -36 100 -37 385 -176 435 -213 48 -35 162 -112 248 -166 34 -21 91 -67 127
-101 36 -34 89 -84 119 -111 62 -56 155 -152 197 -204 16 -19 35 -41 42 -49
23 -24 92 -117 92 -125 0 -3 16 -30 37 -59 71 -101 78 -112 90 -132 26 -41
138 -261 146 -285 4 -14 14 -38 21 -55 37 -81 49 -110 72 -172 14 -38 25 -69
24 -71 -1 -1 1 -15 4 -30 4 -15 8 -36 11 -47 2 -11 17 -78 34 -150 16 -71 33
-150 36 -175 3 -25 8 -52 10 -60 22 -86 26 -456 7 -630 -14 -132 -14 -131 -50
-290 -11 -47 -29 -126 -41 -177 -25 -109 -45 -172 -77 -234 -12 -25 -32 -72
-43 -105 -25 -75 -124 -267 -162 -316 -16 -20 -29 -39 -29 -42 0 -19 -142
-214 -239 -326 -78 -91 -313 -330 -324 -330 -5 0 -42 -26 -84 -57 -72 -56
-184 -133 -233 -161 -12 -8 -39 -23 -58 -34 -20 -11 -58 -34 -86 -52 -51 -33
-414 -181 -516 -211 -30 -8 -115 -29 -189 -46 -74 -16 -137 -31 -140 -33 -3
-2 -40 -7 -81 -10 -41 -4 -93 -9 -115 -12 -22 -3 -125 -6 -230 -6 -264 -1
-379 11 -598 61 -169 38 -409 116 -496 160 -22 12 -66 31 -98 43 -32 11 -80
36 -108 53 -27 18 -72 44 -100 58 -185 94 -452 319 -679 572 -69 77 -166 198
-166 208 0 3 -33 54 -74 114 -74 110 -187 322 -200 378 -4 16 -25 65 -46 110
-25 53 -50 133 -75 240 -20 88 -44 189 -52 224 -22 94 -21 92 -39 266 -15 147
-15 400 0 485 2 14 7 51 11 84 9 78 13 104 25 151 5 22 19 83 31 135 11 52 22
102 24 110 3 8 11 44 19 80 23 103 183 461 268 600 12 19 36 54 55 77 18 23
33 44 33 46 0 3 19 34 42 69 59 89 171 219 274 318 229 219 251 237 405 335 9
5 52 34 95 63 101 68 367 203 469 237 44 14 89 30 100 35 11 5 45 14 75 20 30
6 85 22 122 35 38 14 68 23 68 20 0 -2 11 0 24 4 13 5 50 12 82 15 33 4 75 8
94 11 189 25 271 32 385 33 61 1 151 -3 200 -8z"/>
<path d="M2789 5605 c-5 -5 -77 -12 -135 -14 l-31 -1 8 -52 c5 -29 10 -73 13
-98 13 -131 19 -161 32 -156 7 3 41 8 76 11 116 11 128 14 128 36 0 16 -5 19
-37 14 -21 -2 -61 -7 -90 -10 l-51 -5 -7 40 c-4 23 -5 44 -2 46 3 3 39 8 81
11 75 6 86 12 67 41 -6 11 -21 11 -75 1 -37 -6 -70 -9 -73 -6 -8 9 -21 87 -14
87 3 1 31 4 61 7 30 3 65 6 78 7 32 2 32 46 -1 46 -13 0 -26 -2 -28 -5z"/>
<path d="M3180 5593 c-21 -11 -37 -28 -40 -43 -12 -46 7 -73 75 -109 35 -19
67 -41 69 -48 8 -19 -29 -53 -56 -53 -38 1 -72 26 -83 61 -16 46 -45 52 -45 9
0 -45 15 -67 60 -90 58 -29 105 -26 141 9 16 16 29 39 29 50 0 28 -45 74 -100
104 -50 27 -63 59 -32 76 27 15 90 -6 98 -33 12 -39 50 -50 49 -13 -3 68 -97
114 -165 80z"/>
<path d="M3659 5537 c0 -1 -2 -9 -4 -17 -1 -8 -21 -72 -44 -141 -23 -69 -41
-129 -41 -132 0 -4 10 -7 23 -7 20 0 26 9 42 58 10 31 20 62 21 67 1 6 13 43
27 82 14 40 23 74 19 76 -12 7 -42 16 -43 14z"/>
<path d="M2209 5491 c-31 -10 -61 -21 -66 -24 -15 -9 80 -282 98 -281 66 7
131 36 159 72 43 54 11 193 -54 233 -37 23 -63 23 -137 0z m129 -53 c11 -13
26 -44 33 -70 20 -74 -1 -103 -96 -132 -18 -5 -23 5 -50 92 -16 53 -30 101
-30 107 0 12 39 23 86 24 25 1 42 -6 57 -21z"/>
<path d="M3976 5376 c-46 -27 -81 -76 -91 -129 -9 -44 16 -99 59 -132 36 -27
109 -49 136 -40 21 7 73 92 64 106 -3 5 -28 21 -56 35 -41 21 -52 23 -59 12
-13 -19 -11 -26 9 -33 9 -3 25 -12 35 -19 15 -12 16 -18 7 -35 -14 -27 -53
-27 -96 0 -56 34 -69 81 -39 139 35 67 115 82 167 30 20 -21 28 -37 25 -50 -3
-13 1 -24 13 -30 29 -16 31 -13 29 36 -2 38 -9 50 -41 80 -21 18 -44 35 -51
35 -59 6 -95 5 -111 -5z"/>
<path d="M4505 5281 c-3 -5 0 -13 6 -17 7 -4 9 -3 5 4 -3 5 0 13 6 15 9 4 10
6 1 6 -6 1 -14 -3 -18 -8z"/>
<path d="M4659 5173 c-13 -16 -12 -17 4 -4 16 13 21 21 13 21 -2 0 -10 -8 -17
-17z"/>
<path d="M4432 5014 c-74 -93 -90 -119 -81 -130 6 -8 14 -14 18 -14 3 0 26 26
51 58 25 31 50 64 57 72 7 8 20 24 28 35 15 19 15 19 10 -5 -3 -14 -7 -45 -10
-70 -18 -189 -18 -185 -1 -199 9 -8 18 -12 20 -10 1 2 16 22 31 44 16 22 58
74 92 116 59 72 61 77 45 92 -16 15 -21 11 -72 -54 -30 -39 -62 -81 -70 -95
-22 -36 -29 -29 -19 16 19 84 30 232 18 246 -6 8 -15 14 -18 14 -4 0 -49 -52
-99 -116z"/>
<path d="M1260 5110 c-9 -6 -10 -10 -3 -10 6 0 15 5 18 10 8 12 4 12 -15 0z"/>
<path d="M1330 5030 c-12 -7 -11 -12 5 -32 21 -23 101 -111 123 -134 21 -22
14 -22 -60 3 -135 44 -188 55 -204 42 -17 -14 -11 -24 74 -118 33 -36 71 -79
84 -96 22 -25 28 -27 42 -16 14 12 14 16 -3 40 -11 14 -33 40 -50 56 -17 17
-43 45 -58 64 -22 29 -24 33 -7 27 10 -4 70 -23 133 -43 102 -31 116 -33 129
-19 14 13 8 23 -54 92 -38 42 -82 92 -97 110 -31 37 -35 38 -57 24z m170 -201
c0 -6 -4 -7 -10 -4 -5 3 -10 11 -10 16 0 6 5 7 10 4 6 -3 10 -11 10 -16z"/>
<path d="M1466 4988 c3 -5 10 -6 15 -3 13 9 11 12 -6 12 -8 0 -12 -4 -9 -9z"/>
<path d="M1489 4973 c-13 -16 -12 -17 4 -4 9 7 17 15 17 17 0 8 -8 3 -21 -13z"/>
<path d="M1101 4966 c-9 -11 -9 -16 1 -22 7 -4 10 -4 6 1 -4 4 -3 14 3 22 6 7
9 13 6 13 -2 0 -10 -6 -16 -14z"/>
<path d="M3167 4523 c-4 -3 -7 -15 -7 -25 0 -16 -9 -18 -70 -18 -49 0 -70 -4
-71 -12 0 -7 0 -118 1 -245 1 -223 0 -233 -18 -233 -16 0 -19 7 -18 38 l1 37
-72 3 c-70 3 -73 4 -73 27 0 21 -5 25 -30 25 -25 0 -30 -4 -30 -25 0 -24 -2
-25 -75 -25 l-75 0 0 -365 c0 -318 -2 -365 -15 -365 -8 0 -15 -9 -15 -20 0
-11 -4 -20 -9 -20 -5 0 -10 196 -13 458 -2 280 -7 463 -13 472 -5 8 -10 29
-10 45 l0 30 -86 3 -86 3 -7 -62 c-3 -34 -6 -77 -6 -95 l0 -34 -215 0 c-171 0
-215 3 -215 13 0 7 -13 26 -29 41 -21 20 -42 29 -82 33 -53 5 -55 4 -102 -38
l-47 -44 -2 -80 c-1 -50 5 -107 16 -152 17 -69 17 -78 1 -170 -9 -54 -18 -109
-20 -123 -17 -120 -38 -256 -49 -308 -12 -57 -11 -66 7 -105 11 -23 23 -58 26
-77 5 -29 13 -37 46 -50 23 -8 54 -25 70 -36 17 -12 78 -35 136 -53 91 -27
122 -31 218 -31 l112 0 65 -63 c37 -36 67 -74 69 -88 2 -19 17 -93 29 -144 1
-5 8 -21 16 -35 7 -14 32 -61 55 -105 23 -44 58 -109 77 -145 31 -56 38 -83
53 -195 31 -235 34 -206 -26 -240 -61 -35 -116 -87 -179 -173 -30 -40 -65 -72
-105 -96 -50 -29 -151 -126 -177 -170 -4 -7 -26 -33 -50 -59 -36 -38 -47 -60
-62 -119 l-18 -73 38 -95 c40 -103 51 -121 68 -118 6 1 40 -1 76 -5 144 -15
162 -14 214 5 28 10 59 23 68 28 10 6 23 10 28 10 6 0 30 9 52 20 23 11 45 20
49 20 26 0 319 163 327 182 2 5 8 8 13 8 5 0 49 25 98 55 72 45 96 55 126 53
36 -2 37 -3 31 -38 -3 -19 -9 -83 -12 -143 l-7 -107 194 2 194 3 3 27 c2 15
-5 39 -16 55 -11 15 -45 67 -75 115 -52 80 -55 89 -47 125 7 31 46 278 65 413
3 19 8 42 11 51 3 11 -18 38 -62 80 l-66 64 6 50 c17 157 33 221 74 292 23 40
42 74 42 76 0 3 20 42 45 87 44 78 69 161 74 238 1 8 31 45 67 82 l65 68 127
4 c102 3 146 10 222 33 52 15 111 38 130 50 19 12 48 26 65 32 24 8 31 17 36
45 3 19 16 52 28 73 17 29 21 48 17 78 -3 21 -11 78 -17 125 -14 115 -24 182
-34 237 -2 11 -4 28 -4 37 -1 28 -31 9 -31 -19 0 -13 3 -22 8 -20 8 6 7 -44
-3 -113 l-6 -45 16 30 c15 29 15 30 10 3 -3 -16 0 -28 8 -31 8 -3 7 -10 -7
-23 -18 -19 -18 -18 -12 3 6 18 4 21 -13 18 -19 -3 -20 1 -15 98 5 88 8 104
26 118 12 9 18 21 15 26 -3 5 -8 38 -12 73 -3 34 -8 66 -10 71 -3 4 4 31 15
60 18 46 20 65 14 138 -3 48 -10 96 -15 109 -5 13 -9 36 -9 50 0 16 -9 36 -22
46 -19 17 -23 17 -47 3 -18 -10 -56 -16 -111 -18 -82 -2 -85 -1 -82 21 1 14
-2 20 -10 17 -7 -2 -12 -11 -10 -21 2 -14 -9 -16 -82 -16 -79 0 -84 1 -79 20
3 11 0 20 -6 20 -8 0 -11 -136 -11 -490 0 -429 -2 -490 -15 -490 -9 0 -15 9
-15 25 0 18 -5 25 -20 25 -20 0 -20 7 -20 365 l0 365 -65 0 c-63 0 -65 1 -65
26 0 23 -3 25 -37 22 -31 -2 -39 -7 -41 -25 -3 -21 -8 -23 -73 -23 l-69 0 0
-40 c0 -22 -4 -40 -10 -40 -6 0 -10 88 -10 245 l0 245 -69 0 c-65 0 -69 1 -75
25 -5 19 -13 25 -35 25 -15 0 -31 -3 -34 -7z m53 -608 c0 -494 -2 -595 -14
-595 -22 0 -26 113 -26 672 0 511 0 518 20 518 20 0 20 -7 20 -595z m-60 475
l0 -70 -65 0 -65 0 0 70 0 70 65 0 65 0 0 -70z m200 0 l0 -70 -60 0 -60 0 0
70 0 70 60 0 60 0 0 -70z m-200 -97 c0 -9 -119 -8 -127 1 -4 3 24 6 60 6 37 0
67 -3 67 -7z m200 0 c0 -9 -119 -8 -127 1 -4 3 24 6 60 6 37 0 67 -3 67 -7z
m-820 -33 c0 -18 -7 -20 -70 -20 -63 0 -70 2 -70 20 0 18 7 20 70 20 63 0 70
-2 70 -20z m587 3 c-20 -2 -52 -2 -70 0 -17 2 0 4 38 4 39 0 53 -2 32 -4z
m206 0 c-18 -2 -48 -2 -65 0 -18 2 -4 4 32 4 36 0 50 -2 33 -4z m27 -25 c0 -9
-18 -12 -62 -11 -84 3 -85 5 -8 13 36 4 66 7 68 8 1 1 2 -4 2 -10z m-201 -2
c-7 -8 -118 -10 -126 -3 -3 4 24 7 62 7 38 0 66 -2 64 -4z m1071 -33 c-1 -27
-1 -27 -15 -9 -14 19 -12 36 6 36 5 0 9 -12 9 -27z m-1779 -5 c1 -13 1 -74 1
-135 0 -111 0 -113 22 -113 20 0 23 5 24 45 0 27 -4 45 -11 45 -8 0 -7 4 1 12
15 15 16 48 1 48 -6 0 -7 5 -2 13 15 24 13 47 -5 47 -16 1 -16 1 1 11 12 7 16
17 12 30 -5 14 -2 19 14 19 16 0 20 -6 18 -22 -1 -14 3 -22 11 -20 6 1 12 -2
12 -8 0 -5 -7 -10 -15 -10 -10 0 -14 -8 -11 -22 2 -13 9 -22 15 -20 6 1 11 -2
11 -8 0 -5 -7 -10 -16 -10 -10 0 -14 -7 -12 -22 2 -16 9 -22 21 -20 9 2 17 -2
17 -8 0 -5 -9 -10 -20 -10 -18 0 -20 -5 -17 -42 3 -30 9 -44 20 -46 23 -5 22
-20 0 -18 -12 0 -19 -7 -21 -21 -3 -18 2 -23 20 -24 l23 0 -22 -9 c-29 -12
-31 -50 -3 -50 11 0 20 -4 20 -9 0 -5 -7 -8 -16 -7 -26 2 -29 -25 -3 -31 l23
-6 -22 -8 c-28 -11 -28 -39 0 -47 l22 -5 -22 -8 c-28 -11 -28 -39 0 -47 l22
-5 -22 -8 c-28 -11 -28 -27 1 -39 l22 -9 -22 0 c-31 -1 -31 -39 -1 -50 l22 -8
-22 -5 c-28 -8 -28 -38 0 -46 l22 -5 -22 -8 c-29 -11 -28 -37 1 -49 15 -6 -7
-9 -75 -9 l-98 -1 0 338 c0 185 4 343 9 350 4 7 12 12 17 11 21 -4 30 2 30 21
0 15 -7 20 -25 20 -13 0 -21 3 -17 7 4 4 15 8 24 8 12 0 16 7 14 23 -2 15 2
22 12 22 10 0 17 -9 17 -22z m709 2 c0 -6 -28 -10 -65 -10 -37 0 -65 4 -65 10
0 6 28 10 65 10 37 0 65 -4 65 -10z m200 0 c0 -6 -27 -10 -60 -10 -33 0 -60 4
-60 10 0 6 27 10 60 10 33 0 60 -4 60 -10z m613 -17 c-15 -24 -18 -45 -15
-140 2 -62 7 -113 13 -113 5 0 9 52 9 119 0 74 4 122 11 126 7 5 9 -32 7 -119
-2 -79 1 -126 7 -126 6 0 9 49 8 132 -2 119 -1 131 12 114 11 -15 15 -49 15
-133 0 -69 4 -113 10 -113 6 0 10 39 10 97 0 87 1 95 15 77 10 -13 14 -44 15
-96 0 -45 4 -78 10 -78 6 0 10 27 10 62 0 56 1 60 15 42 8 -10 15 -38 15 -61
0 -24 4 -43 9 -43 5 0 11 -7 14 -14 4 -10 1 -13 -9 -9 -10 4 -14 -3 -14 -26 0
-37 7 -40 20 -8 8 21 9 21 9 -5 1 -19 -4 -28 -14 -28 -13 0 -15 -14 -14 -77 1
-70 -9 -244 -17 -283 -1 -8 -3 -37 -3 -64 -1 -46 -2 -48 -16 -30 -14 18 -14
18 -15 -8 0 -14 6 -29 13 -32 10 -5 10 -7 0 -12 -7 -3 -13 -12 -13 -20 0 -8
-7 -14 -15 -14 -9 0 -15 9 -15 22 0 12 -3 18 -7 14 -5 -4 -8 -13 -8 -19 0 -7
-7 -12 -15 -12 -8 0 -15 5 -15 12 0 6 -3 15 -7 19 -5 4 -8 -2 -8 -14 0 -12 -4
-22 -10 -22 -5 0 -10 9 -10 20 0 11 -4 20 -10 20 -5 0 -10 -9 -10 -20 0 -11
-7 -20 -15 -20 -8 0 -15 9 -15 20 0 11 -4 20 -10 20 -5 0 -10 -11 -10 -25 0
-16 -6 -25 -15 -25 -9 0 -15 10 -15 26 0 15 -4 23 -10 19 -6 -4 -8 -15 -5 -26
5 -14 2 -19 -12 -19 -17 0 -18 17 -16 327 2 181 3 331 3 334 0 3 7 14 15 25
15 18 16 17 10 -13 -4 -21 -3 -33 4 -33 6 0 11 20 11 48 0 26 7 56 15 66 14
18 15 14 15 -47 0 -38 4 -67 10 -67 6 0 10 34 10 83 0 48 5 88 11 94 6 6 9 17
7 24 -2 7 -22 -14 -43 -47 -75 -114 -70 -115 -70 13 l0 113 78 0 78 0 -18 -27z
m204 -62 c9 -62 9 -90 1 -105 -9 -17 -12 -18 -16 -6 -3 8 -8 17 -12 20 -4 3
-29 37 -55 75 -27 39 -55 76 -62 83 -7 7 -13 16 -13 18 0 3 33 4 73 2 l72 -3
12 -84z m-2347 48 c0 -5 -7 -12 -16 -16 -19 -7 -38 18 -22 28 14 9 38 0 38
-12z m34 -10 c-3 -6 0 -15 7 -20 7 -4 11 -10 8 -13 -3 -3 -14 1 -25 9 -16 13
-17 16 -4 25 19 13 23 13 14 -1z m1296 1 c0 -6 -28 -10 -65 -10 -37 0 -65 4
-65 10 0 6 28 10 65 10 37 0 65 -4 65 -10z m200 0 c0 -6 -27 -10 -60 -10 -33
0 -60 4 -60 10 0 6 27 10 60 10 33 0 60 -4 60 -10z m-1589 -45 c-8 -39 -8 -39
-16 -12 -5 18 -3 33 5 42 17 21 19 16 11 -30z m2449 15 c0 -16 -2 -30 -4 -30
-2 0 -6 14 -8 30 -3 17 -1 30 4 30 4 0 8 -13 8 -30z m56 -45 c-3 -11 -12 -29
-21 -40 -15 -19 -15 -19 -10 5 3 14 8 39 10 55 2 17 4 35 5 40 1 6 6 -1 11
-15 6 -13 8 -34 5 -45z m-2548 33 c-1 -13 2 -38 6 -55 5 -20 4 -33 -2 -33 -16
0 -35 72 -25 97 8 21 23 14 21 -9z m1399 15 c-20 -2 -52 -2 -70 0 -17 2 0 4
38 4 39 0 53 -2 32 -4z m206 0 c-18 -2 -48 -2 -65 0 -18 2 -4 4 32 4 36 0 50
-2 33 -4z m-1518 -13 c-3 -5 -13 -10 -21 -10 -8 0 -14 5 -14 10 0 6 9 10 21
10 11 0 17 -4 14 -10z m1345 -20 c0 -6 -28 -10 -65 -10 -37 0 -65 4 -65 10 0
6 28 10 65 10 37 0 65 -4 65 -10z m200 0 c0 -6 -27 -10 -60 -10 -33 0 -60 4
-60 10 0 6 27 10 60 10 33 0 60 -4 60 -10z m-1491 -327 c-1 -202 -4 -315 -10
-293 -4 19 -9 76 -10 125 -1 50 -6 96 -12 103 -6 8 -6 12 2 12 18 0 13 38 -6
49 -17 10 -17 10 0 11 12 0 17 6 15 18 -2 9 -10 16 -16 15 -7 -2 -12 2 -12 7
0 6 7 10 16 10 10 0 14 7 12 23 -2 14 -9 21 -21 21 -9 -1 -17 2 -17 7 0 5 9 9
20 9 25 0 27 35 3 49 -17 10 -17 10 -1 11 15 0 18 9 17 53 -2 77 0 97 11 97 6
0 10 -115 9 -327z m45 252 c-3 -73 -3 -75 21 -75 21 0 23 4 23 45 0 25 -4 45
-10 45 -6 0 -6 6 2 15 7 8 10 22 6 30 -4 10 1 15 14 15 22 0 24 -11 20 -94 -1
-32 3 -51 11 -57 10 -6 11 -9 2 -9 -7 0 -13 -11 -13 -25 0 -18 5 -25 19 -25
18 0 19 8 19 83 -1 126 0 127 22 127 22 0 24 -9 21 -97 -1 -47 1 -53 20 -53
19 0 21 5 19 53 -4 81 -1 97 15 97 16 0 19 -14 16 -98 -1 -50 1 -53 21 -50 18
2 22 10 23 43 0 24 -6 45 -15 53 -13 11 -13 12 0 10 10 -2 14 4 12 20 -2 16 2
22 15 22 17 0 18 -8 16 -75 -2 -73 -2 -75 22 -75 21 0 23 4 23 45 0 25 -4 45
-10 45 -6 0 -6 6 2 15 7 8 10 22 6 30 -3 10 1 15 13 15 12 0 20 -9 24 -27 3
-16 2 -29 -1 -31 -4 -1 -6 -22 -4 -47 3 -36 8 -45 23 -45 16 0 19 7 18 53 -2
83 0 97 16 97 13 0 15 -45 15 -345 l0 -345 -237 0 -238 0 0 345 c0 312 2 345
16 345 14 0 16 -11 13 -75z m908 -230 c3 -267 1 -309 -14 -342 -16 -37 -17
-25 -17 305 -1 295 1 342 14 342 12 0 15 -44 17 -305z m778 -75 c0 -373 0
-380 -20 -380 -20 0 -20 7 -20 380 0 373 0 380 20 380 20 0 20 -7 20 -380z
m-1765 360 c3 -5 1 -10 -4 -10 -6 0 -11 5 -11 10 0 6 2 10 4 10 3 0 8 -4 11
-10z m265 0 c0 -5 -5 -10 -11 -10 -5 0 -7 5 -4 10 3 6 8 10 11 10 2 0 4 -4 4
-10z m1060 -10 c0 -6 -28 -10 -65 -10 -37 0 -65 4 -65 10 0 6 28 10 65 10 37
0 65 -4 65 -10z m200 0 c0 -6 -27 -10 -60 -10 -33 0 -60 4 -60 10 0 6 27 10
60 10 33 0 60 -4 60 -10z m-1603 -22 c-3 -8 -6 -5 -6 6 -1 11 2 17 5 13 3 -3
4 -12 1 -19z m73 2 c0 -5 -4 -10 -10 -10 -5 0 -10 -8 -10 -17 0 -13 -3 -14
-12 -5 -8 8 -8 15 2 27 14 17 30 20 30 5z m1706 -17 c-10 -10 -19 5 -10 18 6
11 8 11 12 0 2 -7 1 -15 -2 -18z m694 17 c0 -5 -2 -10 -4 -10 -3 0 -8 5 -11
10 -3 6 -1 10 4 10 6 0 11 -4 11 -10z m-2500 -100 c1 -40 4 -50 10 -35 10 23
13 5 4 -19 -5 -14 -9 -13 -26 6 -11 12 -15 24 -10 26 5 1 6 20 1 45 -4 23 -8
51 -8 62 0 18 1 17 14 -5 8 -14 15 -50 15 -80z m940 90 c0 -5 -4 -10 -10 -10
-5 0 -10 5 -10 10 0 6 5 10 10 10 6 0 10 -4 10 -10z m35 0 c-3 -5 -10 -10 -16
-10 -5 0 -9 5 -9 10 0 6 7 10 16 10 8 0 12 -4 9 -10z m75 0 c0 -5 -9 -10 -20
-10 -11 0 -20 5 -20 10 0 6 9 10 20 10 11 0 20 -4 20 -10z m80 0 c0 -5 -4 -10
-10 -10 -5 0 -10 5 -10 10 0 6 5 10 10 10 6 0 10 -4 10 -10z m40 0 c0 -5 -4
-10 -10 -10 -5 0 -10 5 -10 10 0 6 5 10 10 10 6 0 10 -4 10 -10z m30 0 c0 -5
-4 -10 -10 -10 -5 0 -10 5 -10 10 0 6 5 10 10 10 6 0 10 -4 10 -10z m40 0 c0
-5 -4 -10 -10 -10 -5 0 -10 5 -10 10 0 6 5 10 10 10 6 0 10 -4 10 -10z m470 0
c0 -5 -4 -10 -9 -10 -6 0 -13 5 -16 10 -3 6 1 10 9 10 9 0 16 -4 16 -10z m30
0 c0 -5 -4 -10 -10 -10 -5 0 -10 5 -10 10 0 6 5 10 10 10 6 0 10 -4 10 -10z
m40 0 c0 -5 -4 -10 -10 -10 -5 0 -10 5 -10 10 0 6 5 10 10 10 6 0 10 -4 10
-10z m130 0 c0 -5 -4 -10 -10 -10 -5 0 -10 5 -10 10 0 6 5 10 10 10 6 0 10 -4
10 -10z m60 0 c0 -5 -4 -10 -10 -10 -5 0 -10 5 -10 10 0 6 5 10 10 10 6 0 10
-4 10 -10z m35 0 c-3 -5 -10 -10 -16 -10 -5 0 -9 5 -9 10 0 6 7 10 16 10 8 0
12 -4 9 -10z m541 -17 c-2 -16 -5 -46 -5 -67 -1 -47 -8 -44 -17 9 -3 23 -1 47
7 62 16 30 21 29 15 -4z m-2493 -110 c-3 -7 -9 -13 -14 -13 -14 0 -11 18 4 23
10 4 10 7 0 18 -14 14 -18 81 -5 93 8 9 22 -102 15 -121z m1377 117 c0 -6 -28
-10 -65 -10 -37 0 -65 4 -65 10 0 6 28 10 65 10 37 0 65 -4 65 -10z m200 0 c0
-6 -27 -10 -60 -10 -33 0 -60 4 -60 10 0 6 27 10 60 10 33 0 60 -4 60 -10z
m853 -74 c-11 -21 -12 -31 -4 -34 14 -5 15 -32 1 -32 -5 0 -10 7 -10 15 0 8
-4 15 -9 15 -6 0 -6 12 -1 30 10 36 10 33 11 68 l1 27 13 -30 c11 -25 11 -34
-2 -59z m-2113 64 c0 -5 -5 -10 -11 -10 -5 0 -7 5 -4 10 3 6 8 10 11 10 2 0 4
-4 4 -10z m607 -6 c-3 -3 -12 -4 -19 -1 -8 3 -5 6 6 6 11 1 17 -2 13 -5z m66
-1 c-7 -2 -19 -2 -25 0 -7 3 -2 5 12 5 14 0 19 -2 13 -5z m384 -17 c4 -3 -24
-6 -61 -6 -37 0 -65 3 -63 8 6 8 115 7 124 -2z m203 -1 c0 -6 -26 -9 -65 -7
-36 2 -63 7 -61 10 7 11 126 8 126 -3z m-690 -16 c0 -5 -4 -9 -10 -9 -5 0 -10
7 -10 16 0 8 5 12 10 9 6 -3 10 -10 10 -16z m37 -5 c-9 -9 -28 6 -21 18 4 6
10 6 17 -1 6 -6 8 -13 4 -17z m193 5 c0 -5 -4 -9 -10 -9 -5 0 -10 7 -10 16 0
8 5 12 10 9 6 -3 10 -10 10 -16z m26 -6 c-10 -10 -19 5 -10 18 6 11 8 11 12 0
2 -7 1 -15 -2 -18z m44 6 c0 -5 -4 -9 -10 -9 -5 0 -10 7 -10 16 0 8 5 12 10 9
6 -3 10 -10 10 -16z m500 6 c0 -8 -4 -15 -10 -15 -5 0 -10 7 -10 15 0 8 5 15
10 15 6 0 10 -7 10 -15z m40 -6 c0 -5 -4 -9 -10 -9 -5 0 -10 7 -10 16 0 8 5
12 10 9 6 -3 10 -10 10 -16z m26 -6 c-10 -10 -19 5 -10 18 6 11 8 11 12 0 2
-7 1 -15 -2 -18z m164 6 c0 -5 -4 -9 -10 -9 -5 0 -10 7 -10 16 0 8 5 12 10 9
6 -3 10 -10 10 -16z m31 -2 c-13 -13 -26 -3 -16 12 3 6 11 8 17 5 6 -4 6 -10
-1 -17z m-951 3 c0 -5 -9 -10 -20 -10 -11 0 -20 5 -20 10 0 6 9 10 20 10 11 0
20 -4 20 -10z m80 0 c0 -5 -4 -10 -10 -10 -5 0 -10 5 -10 10 0 6 5 10 10 10 6
0 10 -4 10 -10z m580 0 c0 -5 -7 -10 -15 -10 -8 0 -15 5 -15 10 0 6 7 10 15
10 8 0 15 -4 15 -10z m200 0 c0 -5 -4 -10 -10 -10 -5 0 -10 5 -10 10 0 6 5 10
10 10 6 0 10 -4 10 -10z m651 -37 c-9 -15 -10 -13 -7 12 6 40 8 43 13 23 2
-10 0 -25 -6 -35z m-2483 6 c-3 -8 -7 -3 -11 10 -4 17 -3 21 5 13 5 -5 8 -16
6 -23z m32 27 c0 -3 -4 -8 -10 -11 -5 -3 -10 -1 -10 4 0 6 5 11 10 11 6 0 10
-2 10 -4z m260 -6 c0 -5 -2 -10 -4 -10 -3 0 -8 5 -11 10 -3 6 -1 10 4 10 6 0
11 -4 11 -10z m2080 -11 c0 -11 -4 -18 -10 -14 -5 3 -7 12 -3 20 7 21 13 19
13 -6z m-1160 -209 c0 -205 -1 -220 -17 -220 -17 0 -18 16 -18 220 0 200 2
220 17 220 15 0 17 -21 18 -220z m107 213 c-20 -2 -52 -2 -70 0 -17 2 0 4 38
4 39 0 53 -2 32 -4z m206 0 c-18 -2 -48 -2 -65 0 -18 2 -4 4 32 4 36 0 50 -2
33 -4z m67 -308 c0 -203 -4 -315 -10 -315 -6 0 -10 112 -10 315 0 203 4 315
10 315 6 0 10 -112 10 -315z m-730 295 c0 -5 -4 -10 -10 -10 -5 0 -10 5 -10
10 0 6 5 10 10 10 6 0 10 -4 10 -10z m40 0 c0 -5 -7 -10 -15 -10 -8 0 -15 5
-15 10 0 6 7 10 15 10 8 0 15 -4 15 -10z m70 0 c0 -5 -9 -10 -21 -10 -11 0
-17 5 -14 10 3 6 13 10 21 10 8 0 14 -4 14 -10z m80 0 c0 -5 -4 -10 -10 -10
-5 0 -10 5 -10 10 0 6 5 10 10 10 6 0 10 -4 10 -10z m40 0 c0 -5 -4 -10 -10
-10 -5 0 -10 5 -10 10 0 6 5 10 10 10 6 0 10 -4 10 -10z m30 0 c0 -5 -4 -10
-10 -10 -5 0 -10 5 -10 10 0 6 5 10 10 10 6 0 10 -4 10 -10z m40 0 c0 -5 -4
-10 -10 -10 -5 0 -10 5 -10 10 0 6 5 10 10 10 6 0 10 -4 10 -10z m470 0 c0 -5
-7 -10 -16 -10 -8 0 -12 5 -9 10 3 6 10 10 16 10 5 0 9 -4 9 -10z m30 0 c0 -5
-4 -10 -10 -10 -5 0 -10 5 -10 10 0 6 5 10 10 10 6 0 10 -4 10 -10z m40 0 c0
-5 -4 -10 -10 -10 -5 0 -10 5 -10 10 0 6 5 10 10 10 6 0 10 -4 10 -10z m30 0
c0 -5 -4 -10 -10 -10 -5 0 -10 5 -10 10 0 6 5 10 10 10 6 0 10 -4 10 -10z
m100 0 c0 -5 -4 -10 -10 -10 -5 0 -10 5 -10 10 0 6 5 10 10 10 6 0 10 -4 10
-10z m60 0 c0 -5 -4 -10 -10 -10 -5 0 -10 5 -10 10 0 6 5 10 10 10 6 0 10 -4
10 -10z m35 0 c3 -5 -1 -10 -9 -10 -9 0 -16 5 -16 10 0 6 4 10 9 10 6 0 13 -4
16 -10z m-575 -11 c0 -5 -30 -9 -66 -9 -36 0 -63 3 -61 8 7 10 127 11 127 1z
m200 -1 c0 -5 -30 -8 -66 -8 -36 0 -63 3 -61 8 7 9 127 9 127 0z m-1520 -22
c0 -3 -4 -8 -10 -11 -5 -3 -10 -1 -10 4 0 6 5 11 10 11 6 0 10 -2 10 -4z m830
-6 c0 -5 -4 -10 -10 -10 -5 0 -10 5 -10 10 0 6 5 10 10 10 6 0 10 -4 10 -10z
m40 0 c0 -5 -7 -10 -15 -10 -8 0 -15 5 -15 10 0 6 7 10 15 10 8 0 15 -4 15
-10z m70 0 c0 -5 -9 -10 -20 -10 -11 0 -20 5 -20 10 0 6 9 10 20 10 11 0 20
-4 20 -10z m80 0 c0 -5 -4 -10 -10 -10 -5 0 -10 5 -10 10 0 6 5 10 10 10 6 0
10 -4 10 -10z m40 0 c0 -5 -4 -10 -10 -10 -5 0 -10 5 -10 10 0 6 5 10 10 10 6
0 10 -4 10 -10z m30 0 c0 -5 -4 -10 -10 -10 -5 0 -10 5 -10 10 0 6 5 10 10 10
6 0 10 -4 10 -10z m40 0 c0 -5 -4 -10 -10 -10 -5 0 -10 5 -10 10 0 6 5 10 10
10 6 0 10 -4 10 -10z m470 0 c0 -5 -7 -10 -15 -10 -8 0 -15 5 -15 10 0 6 7 10
15 10 8 0 15 -4 15 -10z m30 0 c0 -5 -4 -10 -10 -10 -5 0 -10 5 -10 10 0 6 5
10 10 10 6 0 10 -4 10 -10z m40 0 c0 -5 -4 -10 -10 -10 -5 0 -10 5 -10 10 0 6
5 10 10 10 6 0 10 -4 10 -10z m30 0 c0 -5 -4 -10 -10 -10 -5 0 -10 5 -10 10 0
6 5 10 10 10 6 0 10 -4 10 -10z m100 0 c0 -5 -4 -10 -10 -10 -5 0 -10 5 -10
10 0 6 5 10 10 10 6 0 10 -4 10 -10z m60 0 c0 -5 -4 -10 -10 -10 -5 0 -10 5
-10 10 0 6 5 10 10 10 6 0 10 -4 10 -10z m35 0 c-3 -5 -10 -10 -16 -10 -5 0
-9 5 -9 10 0 6 7 10 16 10 8 0 12 -4 9 -10z m-575 -10 c0 -6 -28 -10 -65 -10
-37 0 -65 4 -65 10 0 6 28 10 65 10 37 0 65 -4 65 -10z m200 0 c0 -6 -27 -10
-60 -10 -33 0 -60 4 -60 10 0 6 27 10 60 10 33 0 60 -4 60 -10z m889 -27 c0
-25 -1 -26 -9 -8 -12 27 -12 35 0 35 6 0 10 -12 9 -27z m-2479 -17 c0 -13 10
-31 23 -39 21 -15 21 -15 -10 -4 -28 10 -33 16 -33 45 0 20 4 31 10 27 6 -3
10 -17 10 -29z m900 30 c0 -3 -4 -8 -10 -11 -5 -3 -10 -1 -10 4 0 6 5 11 10
11 6 0 10 -2 10 -4z m40 0 c0 -11 -19 -15 -25 -6 -3 5 1 10 9 10 9 0 16 -2 16
-4z m70 0 c0 -9 -30 -14 -35 -6 -4 6 3 10 14 10 12 0 21 -2 21 -4z m80 -6 c0
-5 -2 -10 -4 -10 -3 0 -8 5 -11 10 -3 6 -1 10 4 10 6 0 11 -4 11 -10z m40 6
c0 -3 -4 -8 -10 -11 -5 -3 -10 -1 -10 4 0 6 5 11 10 11 6 0 10 -2 10 -4z m30
-6 c0 -5 -2 -10 -4 -10 -3 0 -8 5 -11 10 -3 6 -1 10 4 10 6 0 11 -4 11 -10z
m40 6 c0 -3 -4 -8 -10 -11 -5 -3 -10 -1 -10 4 0 6 5 11 10 11 6 0 10 -2 10 -4z
m500 -6 c0 -5 -4 -10 -10 -10 -5 0 -10 5 -10 10 0 6 5 10 10 10 6 0 10 -4 10
-10z m40 6 c0 -3 -4 -8 -10 -11 -5 -3 -10 -1 -10 4 0 6 5 11 10 11 6 0 10 -2
10 -4z m190 0 c0 -3 -4 -8 -10 -11 -5 -3 -10 -1 -10 4 0 6 5 11 10 11 6 0 10
-2 10 -4z m30 -6 c0 -5 -2 -10 -4 -10 -3 0 -8 5 -11 10 -3 6 -1 10 4 10 6 0
11 -4 11 -10z m-1926 -16 c5 -14 4 -15 -9 -4 -17 14 -19 20 -6 20 5 0 12 -7
15 -16z m1356 -4 c0 -6 -28 -10 -65 -10 -37 0 -65 4 -65 10 0 6 28 10 65 10
37 0 65 -4 65 -10z m200 0 c0 -6 -27 -10 -60 -10 -33 0 -60 4 -60 10 0 6 27
10 60 10 33 0 60 -4 60 -10z m870 -9 c0 -11 -4 -23 -10 -26 -6 -4 -9 5 -8 19
3 30 18 35 18 7z m-2390 5 c0 -3 -4 -8 -10 -11 -5 -3 -10 -1 -10 4 0 6 5 11
10 11 6 0 10 -2 10 -4z m830 -6 c0 -5 -4 -10 -10 -10 -5 0 -10 5 -10 10 0 6 5
10 10 10 6 0 10 -4 10 -10z m40 0 c0 -5 -7 -10 -15 -10 -8 0 -15 5 -15 10 0 6
7 10 15 10 8 0 15 -4 15 -10z m70 0 c0 -5 -9 -10 -20 -10 -11 0 -20 5 -20 10
0 6 9 10 20 10 11 0 20 -4 20 -10z m80 0 c0 -5 -4 -10 -10 -10 -5 0 -10 5 -10
10 0 6 5 10 10 10 6 0 10 -4 10 -10z m40 0 c0 -5 -4 -10 -10 -10 -5 0 -10 5
-10 10 0 6 5 10 10 10 6 0 10 -4 10 -10z m30 0 c0 -5 -4 -10 -10 -10 -5 0 -10
5 -10 10 0 6 5 10 10 10 6 0 10 -4 10 -10z m40 0 c0 -5 -4 -10 -10 -10 -5 0
-10 5 -10 10 0 6 5 10 10 10 6 0 10 -4 10 -10z m470 0 c0 -5 -7 -10 -15 -10
-8 0 -15 5 -15 10 0 6 7 10 15 10 8 0 15 -4 15 -10z m30 0 c0 -5 -4 -10 -10
-10 -5 0 -10 5 -10 10 0 6 5 10 10 10 6 0 10 -4 10 -10z m40 0 c0 -5 -4 -10
-10 -10 -5 0 -10 5 -10 10 0 6 5 10 10 10 6 0 10 -4 10 -10z m30 0 c0 -5 -4
-10 -10 -10 -5 0 -10 5 -10 10 0 6 5 10 10 10 6 0 10 -4 10 -10z m100 0 c0 -5
-4 -10 -10 -10 -5 0 -10 5 -10 10 0 6 5 10 10 10 6 0 10 -4 10 -10z m60 0 c0
-5 -4 -10 -10 -10 -5 0 -10 5 -10 10 0 6 5 10 10 10 6 0 10 -4 10 -10z m35 0
c-3 -5 -10 -10 -16 -10 -5 0 -9 5 -9 10 0 6 7 10 16 10 8 0 12 -4 9 -10z
m-575 -20 c0 -6 -28 -10 -65 -10 -37 0 -65 4 -65 10 0 6 28 10 65 10 37 0 65
-4 65 -10z m200 0 c0 -6 -27 -10 -60 -10 -33 0 -60 4 -60 10 0 6 27 10 60 10
33 0 60 -4 60 -10z m-690 -10 c0 -5 -4 -10 -10 -10 -5 0 -10 5 -10 10 0 6 5
10 10 10 6 0 10 -4 10 -10z m35 0 c3 -5 -1 -10 -10 -10 -9 0 -13 5 -10 10 3 6
8 10 10 10 2 0 7 -4 10 -10z m22 -12 c-3 -8 -6 -5 -6 6 -1 11 2 17 5 13 3 -3
4 -12 1 -19z m53 12 c0 -5 -9 -10 -21 -10 -11 0 -17 5 -14 10 3 6 13 10 21 10
8 0 14 -4 14 -10z m80 0 c0 -5 -4 -10 -10 -10 -5 0 -10 5 -10 10 0 6 5 10 10
10 6 0 10 -4 10 -10z m40 0 c0 -5 -4 -10 -10 -10 -5 0 -10 5 -10 10 0 6 5 10
10 10 6 0 10 -4 10 -10z m30 -6 c0 -8 -4 -12 -10 -9 -5 3 -10 10 -10 16 0 5 5
9 10 9 6 0 10 -7 10 -16z m40 7 c0 -6 -4 -13 -10 -16 -5 -3 -10 1 -10 9 0 9 5
16 10 16 6 0 10 -4 10 -9z m470 -1 c0 -5 -7 -10 -16 -10 -8 0 -12 5 -9 10 3 6
10 10 16 10 5 0 9 -4 9 -10z m30 0 c0 -5 -4 -10 -10 -10 -5 0 -10 5 -10 10 0
6 5 10 10 10 6 0 10 -4 10 -10z m40 0 c0 -5 -4 -10 -10 -10 -5 0 -10 5 -10 10
0 6 5 10 10 10 6 0 10 -4 10 -10z m30 0 c0 -5 -4 -10 -10 -10 -5 0 -10 5 -10
10 0 6 5 10 10 10 6 0 10 -4 10 -10z m100 0 c0 -5 -4 -10 -10 -10 -5 0 -10 5
-10 10 0 6 5 10 10 10 6 0 10 -4 10 -10z m17 -12 c-3 -8 -6 -5 -6 6 -1 11 2
17 5 13 3 -3 4 -12 1 -19z m43 13 c0 -6 -4 -13 -10 -16 -5 -3 -10 1 -10 9 0 9
5 16 10 16 6 0 10 -4 10 -9z m35 -1 c3 -5 -1 -10 -10 -10 -9 0 -13 5 -10 10 3
6 8 10 10 10 2 0 7 -4 10 -10z m460 -9 c3 -5 1 -12 -5 -16 -5 -3 -10 1 -10 9
0 18 6 21 15 7z m-2433 -25 c-5 -6 -12 -18 -15 -26 -3 -8 -6 -1 -6 17 -1 25 2
31 14 27 10 -4 12 -10 7 -18z m2480 -11 c2 -19 1 -35 -2 -35 -9 0 -29 58 -22
64 13 13 20 4 24 -29z m-1115 18 c-20 -2 -52 -2 -70 0 -17 2 0 4 38 4 39 0 53
-2 32 -4z m200 0 c-20 -2 -52 -2 -70 0 -17 2 0 4 38 4 39 0 53 -2 32 -4z
m-657 -13 c0 -5 -4 -10 -10 -10 -5 0 -10 5 -10 10 0 6 5 10 10 10 6 0 10 -4
10 -10z m40 0 c0 -5 -7 -10 -15 -10 -8 0 -15 5 -15 10 0 6 7 10 15 10 8 0 15
-4 15 -10z m70 0 c0 -5 -9 -10 -20 -10 -11 0 -20 5 -20 10 0 6 9 10 20 10 11
0 20 -4 20 -10z m80 0 c0 -5 -4 -10 -10 -10 -5 0 -10 5 -10 10 0 6 5 10 10 10
6 0 10 -4 10 -10z m40 0 c0 -5 -4 -10 -10 -10 -5 0 -10 5 -10 10 0 6 5 10 10
10 6 0 10 -4 10 -10z m30 0 c0 -5 -4 -10 -10 -10 -5 0 -10 5 -10 10 0 6 5 10
10 10 6 0 10 -4 10 -10z m40 0 c0 -5 -4 -10 -10 -10 -5 0 -10 5 -10 10 0 6 5
10 10 10 6 0 10 -4 10 -10z m470 0 c0 -5 -7 -10 -15 -10 -8 0 -15 5 -15 10 0
6 7 10 15 10 8 0 15 -4 15 -10z m30 0 c0 -5 -4 -10 -10 -10 -5 0 -10 5 -10 10
0 6 5 10 10 10 6 0 10 -4 10 -10z m40 0 c0 -5 -4 -10 -10 -10 -5 0 -10 5 -10
10 0 6 5 10 10 10 6 0 10 -4 10 -10z m30 0 c0 -5 -4 -10 -10 -10 -5 0 -10 5
-10 10 0 6 5 10 10 10 6 0 10 -4 10 -10z m100 0 c0 -5 -4 -10 -10 -10 -5 0
-10 5 -10 10 0 6 5 10 10 10 6 0 10 -4 10 -10z m60 0 c0 -5 -4 -10 -10 -10 -5
0 -10 5 -10 10 0 6 5 10 10 10 6 0 10 -4 10 -10z m35 0 c-3 -5 -10 -10 -16
-10 -5 0 -9 5 -9 10 0 6 7 10 16 10 8 0 12 -4 9 -10z m-1942 -46 c-2 -21 -9
-89 -16 -151 -9 -76 -10 -111 -3 -110 7 1 11 -15 10 -38 -1 -22 -2 -111 -4
-197 -1 -87 -6 -158 -10 -158 -7 0 -16 89 -25 255 -2 44 -1 67 3 50 4 -16 10
-25 13 -20 10 18 11 95 1 95 -5 0 -10 33 -11 73 -1 39 -4 91 -7 115 -4 29 0
56 13 87 22 54 39 53 36 -1z m1367 36 c0 -6 -28 -10 -65 -10 -37 0 -65 4 -65
10 0 6 28 10 65 10 37 0 65 -4 65 -10z m200 0 c0 -6 -27 -10 -60 -10 -33 0
-60 4 -60 10 0 6 27 10 60 10 33 0 60 -4 60 -10z m863 -37 c10 -28 15 -63 12
-83 -3 -19 -6 -63 -6 -97 0 -67 -18 -90 -20 -25 0 20 -2 51 -4 67 -21 191 -16
232 18 138z m-1676 5 c-3 -8 -6 -5 -6 6 -1 11 2 17 5 13 3 -3 4 -12 1 -19z
m123 7 c0 -8 -4 -15 -10 -15 -5 0 -10 7 -10 15 0 8 5 15 10 15 6 0 10 -7 10
-15z m34 -6 c-3 -5 -10 -7 -15 -3 -5 3 -7 10 -3 15 3 5 10 7 15 3 5 -3 7 -10
3 -15z m23 -1 c-3 -8 -6 -5 -6 6 -1 11 2 17 5 13 3 -3 4 -12 1 -19z m129 -5
c-10 -10 -19 5 -10 18 6 11 8 11 12 0 2 -7 1 -15 -2 -18z m44 6 c0 -5 -4 -9
-10 -9 -5 0 -10 7 -10 16 0 8 5 12 10 9 6 -3 10 -10 10 -16z m26 -6 c-10 -10
-19 5 -10 18 6 11 8 11 12 0 2 -7 1 -15 -2 -18z m44 6 c0 -5 -4 -9 -10 -9 -5
0 -10 7 -10 16 0 8 5 12 10 9 6 -3 10 -10 10 -16z m467 -5 c-9 -9 -28 6 -21
18 4 6 10 6 17 -1 6 -6 8 -13 4 -17z m29 -1 c-10 -10 -19 5 -10 18 6 11 8 11
12 0 2 -7 1 -15 -2 -18z m44 6 c0 -5 -4 -9 -10 -9 -5 0 -10 7 -10 16 0 8 5 12
10 9 6 -3 10 -10 10 -16z m26 -6 c-10 -10 -19 5 -10 18 6 11 8 11 12 0 2 -7 1
-15 -2 -18z m104 12 c0 -8 -4 -15 -10 -15 -5 0 -10 7 -10 15 0 8 5 15 10 15 6
0 10 -7 10 -15z m17 -7 c-3 -8 -6 -5 -6 6 -1 11 2 17 5 13 3 -3 4 -12 1 -19z
m43 7 c0 -8 -4 -15 -10 -15 -5 0 -10 7 -10 15 0 8 5 15 10 15 6 0 10 -7 10
-15z m31 -8 c-13 -13 -26 -3 -16 12 3 6 11 8 17 5 6 -4 6 -10 -1 -17z m-951 3
c0 -5 -6 -10 -14 -10 -8 0 -18 5 -21 10 -3 6 3 10 14 10 12 0 21 -4 21 -10z
m1494 -25 c5 -22 4 -26 -4 -15 -5 8 -10 24 -10 34 0 26 6 18 14 -19z m-1114
15 c0 -6 -28 -10 -65 -10 -37 0 -65 4 -65 10 0 6 28 10 65 10 37 0 65 -4 65
-10z m200 0 c0 -6 -26 -10 -59 -10 -33 0 -63 5 -66 10 -4 6 18 10 59 10 37 0
66 -4 66 -10z m-690 -20 c0 -5 -4 -10 -10 -10 -5 0 -10 5 -10 10 0 6 5 10 10
10 6 0 10 -4 10 -10z m40 0 c0 -5 -7 -10 -15 -10 -8 0 -15 5 -15 10 0 6 7 10
15 10 8 0 15 -4 15 -10z m70 0 c0 -5 -9 -10 -20 -10 -11 0 -20 5 -20 10 0 6 9
10 20 10 11 0 20 -4 20 -10z m80 0 c0 -5 -4 -10 -10 -10 -5 0 -10 5 -10 10 0
6 5 10 10 10 6 0 10 -4 10 -10z m40 0 c0 -5 -4 -10 -10 -10 -5 0 -10 5 -10 10
0 6 5 10 10 10 6 0 10 -4 10 -10z m30 0 c0 -5 -4 -10 -10 -10 -5 0 -10 5 -10
10 0 6 5 10 10 10 6 0 10 -4 10 -10z m40 0 c0 -5 -4 -10 -10 -10 -5 0 -10 5
-10 10 0 6 5 10 10 10 6 0 10 -4 10 -10z m470 0 c0 -5 -7 -10 -16 -10 -8 0
-12 5 -9 10 3 6 10 10 16 10 5 0 9 -4 9 -10z m30 0 c0 -5 -4 -10 -10 -10 -5 0
-10 5 -10 10 0 6 5 10 10 10 6 0 10 -4 10 -10z m40 0 c0 -5 -4 -10 -10 -10 -5
0 -10 5 -10 10 0 6 5 10 10 10 6 0 10 -4 10 -10z m30 0 c0 -5 -4 -10 -10 -10
-5 0 -10 5 -10 10 0 6 5 10 10 10 6 0 10 -4 10 -10z m100 0 c0 -5 -4 -10 -10
-10 -5 0 -10 5 -10 10 0 6 5 10 10 10 6 0 10 -4 10 -10z m60 0 c0 -5 -4 -10
-10 -10 -5 0 -10 5 -10 10 0 6 5 10 10 10 6 0 10 -4 10 -10z m35 0 c3 -5 -1
-10 -9 -10 -9 0 -16 5 -16 10 0 6 4 10 9 10 6 0 13 -4 16 -10z m-575 -10 c0
-6 -29 -10 -66 -10 -41 0 -63 4 -59 10 3 6 33 10 66 10 33 0 59 -4 59 -10z
m200 0 c0 -6 -29 -10 -66 -10 -41 0 -63 4 -59 10 3 6 33 10 66 10 33 0 59 -4
59 -10z m-1635 -130 c0 -88 -3 -120 -12 -120 -14 0 -33 32 -32 52 0 7 7 0 15
-17 l14 -30 -5 35 c-3 19 -6 42 -7 50 -3 26 14 161 20 155 4 -3 6 -60 7 -125z
m92 -89 c-12 -39 -13 -34 -11 82 3 157 5 161 16 50 7 -71 6 -101 -5 -132z
m730 197 c-3 -8 -6 -5 -6 6 -1 11 2 17 5 13 3 -3 4 -12 1 -19z m1625 0 c-7 -7
-12 -8 -12 -2 0 6 3 14 7 17 3 4 9 5 12 2 2 -3 -1 -11 -7 -17z m-1465 -4 c-3
-3 -12 -4 -19 -1 -8 3 -5 6 6 6 11 1 17 -2 13 -5z m66 -1 c-7 -2 -19 -2 -25 0
-7 3 -2 5 12 5 14 0 19 -2 13 -5z m664 1 c-3 -3 -12 -4 -19 -1 -8 3 -5 6 6 6
11 1 17 -2 13 -5z m-277 -14 c0 -6 -28 -10 -65 -10 -37 0 -65 4 -65 10 0 6 28
10 65 10 37 0 65 -4 65 -10z m200 0 c0 -6 -27 -10 -60 -10 -33 0 -60 4 -60 10
0 6 27 10 60 10 33 0 60 -4 60 -10z m-690 -10 c0 -5 -4 -10 -10 -10 -5 0 -10
5 -10 10 0 6 5 10 10 10 6 0 10 -4 10 -10z m40 0 c0 -5 -7 -10 -15 -10 -8 0
-15 5 -15 10 0 6 7 10 15 10 8 0 15 -4 15 -10z m70 0 c0 -5 -9 -10 -20 -10
-11 0 -20 5 -20 10 0 6 9 10 20 10 11 0 20 -4 20 -10z m80 0 c0 -5 -4 -10 -10
-10 -5 0 -10 5 -10 10 0 6 5 10 10 10 6 0 10 -4 10 -10z m40 0 c0 -5 -4 -10
-10 -10 -5 0 -10 5 -10 10 0 6 5 10 10 10 6 0 10 -4 10 -10z m30 0 c0 -5 -4
-10 -10 -10 -5 0 -10 5 -10 10 0 6 5 10 10 10 6 0 10 -4 10 -10z m40 0 c0 -5
-4 -10 -10 -10 -5 0 -10 5 -10 10 0 6 5 10 10 10 6 0 10 -4 10 -10z m470 0 c0
-5 -7 -10 -15 -10 -8 0 -15 5 -15 10 0 6 7 10 15 10 8 0 15 -4 15 -10z m30 0
c0 -5 -4 -10 -10 -10 -5 0 -10 5 -10 10 0 6 5 10 10 10 6 0 10 -4 10 -10z m40
0 c0 -5 -4 -10 -10 -10 -5 0 -10 5 -10 10 0 6 5 10 10 10 6 0 10 -4 10 -10z
m30 0 c0 -5 -4 -10 -10 -10 -5 0 -10 5 -10 10 0 6 5 10 10 10 6 0 10 -4 10
-10z m100 0 c0 -5 -4 -10 -10 -10 -5 0 -10 5 -10 10 0 6 5 10 10 10 6 0 10 -4
10 -10z m60 0 c0 -5 -4 -10 -10 -10 -5 0 -10 5 -10 10 0 6 5 10 10 10 6 0 10
-4 10 -10z m35 0 c3 -5 -1 -10 -9 -10 -9 0 -16 5 -16 10 0 6 4 10 9 10 6 0 13
-4 16 -10z m445 -84 c0 -52 3 -101 6 -110 3 -9 2 -16 -3 -16 -12 0 -35 98 -29
125 2 11 5 37 5 58 1 20 6 37 11 37 6 0 10 -38 10 -94z m-1053 67 c-20 -2 -52
-2 -70 0 -17 2 0 4 38 4 39 0 53 -2 32 -4z m206 0 c-18 -2 -48 -2 -65 0 -18 2
-4 4 32 4 36 0 50 -2 33 -4z m-663 -23 c0 -5 -4 -10 -10 -10 -5 0 -10 5 -10
10 0 6 5 10 10 10 6 0 10 -4 10 -10z m40 0 c0 -5 -7 -10 -15 -10 -8 0 -15 5
-15 10 0 6 7 10 15 10 8 0 15 -4 15 -10z m70 0 c0 -5 -9 -10 -20 -10 -11 0
-20 5 -20 10 0 6 9 10 20 10 11 0 20 -4 20 -10z m80 0 c0 -5 -4 -10 -10 -10
-5 0 -10 5 -10 10 0 6 5 10 10 10 6 0 10 -4 10 -10z m40 0 c0 -5 -4 -10 -10
-10 -5 0 -10 5 -10 10 0 6 5 10 10 10 6 0 10 -4 10 -10z m30 0 c0 -5 -4 -10
-10 -10 -5 0 -10 5 -10 10 0 6 5 10 10 10 6 0 10 -4 10 -10z m40 0 c0 -5 -4
-10 -10 -10 -5 0 -10 5 -10 10 0 6 5 10 10 10 6 0 10 -4 10 -10z m470 0 c0 -5
-4 -10 -9 -10 -6 0 -13 5 -16 10 -3 6 1 10 9 10 9 0 16 -4 16 -10z m30 0 c0
-5 -4 -10 -10 -10 -5 0 -10 5 -10 10 0 6 5 10 10 10 6 0 10 -4 10 -10z m40 0
c0 -5 -4 -10 -10 -10 -5 0 -10 5 -10 10 0 6 5 10 10 10 6 0 10 -4 10 -10z m30
0 c0 -5 -4 -10 -10 -10 -5 0 -10 5 -10 10 0 6 5 10 10 10 6 0 10 -4 10 -10z
m100 0 c0 -5 -4 -10 -10 -10 -5 0 -10 5 -10 10 0 6 5 10 10 10 6 0 10 -4 10
-10z m60 0 c0 -5 -4 -10 -10 -10 -5 0 -10 5 -10 10 0 6 5 10 10 10 6 0 10 -4
10 -10z m35 0 c-3 -5 -10 -10 -16 -10 -5 0 -9 5 -9 10 0 6 7 10 16 10 8 0 12
-4 9 -10z m-575 -10 c0 -6 -28 -10 -65 -10 -37 0 -65 4 -65 10 0 6 28 10 65
10 37 0 65 -4 65 -10z m200 0 c0 -6 -27 -10 -60 -10 -33 0 -60 4 -60 10 0 6
27 10 60 10 33 0 60 -4 60 -10z m-690 -20 c0 -5 -4 -10 -10 -10 -5 0 -10 5
-10 10 0 6 5 10 10 10 6 0 10 -4 10 -10z m40 0 c0 -5 -7 -10 -16 -10 -8 0 -12
5 -9 10 3 6 10 10 16 10 5 0 9 -4 9 -10z m70 0 c0 -5 -9 -10 -21 -10 -11 0
-17 5 -14 10 3 6 13 10 21 10 8 0 14 -4 14 -10z m80 0 c0 -5 -4 -10 -10 -10
-5 0 -10 5 -10 10 0 6 5 10 10 10 6 0 10 -4 10 -10z m40 0 c0 -5 -7 -10 -16
-10 -8 0 -12 5 -9 10 3 6 10 10 16 10 5 0 9 -4 9 -10z m30 0 c0 -5 -4 -10 -10
-10 -5 0 -10 5 -10 10 0 6 5 10 10 10 6 0 10 -4 10 -10z m40 0 c0 -5 -4 -10
-10 -10 -5 0 -10 5 -10 10 0 6 5 10 10 10 6 0 10 -4 10 -10z m465 0 c3 -5 -1
-10 -10 -10 -9 0 -13 5 -10 10 3 6 8 10 10 10 2 0 7 -4 10 -10z m35 0 c0 -5
-4 -10 -10 -10 -5 0 -10 5 -10 10 0 6 5 10 10 10 6 0 10 -4 10 -10z m40 0 c0
-5 -4 -10 -10 -10 -5 0 -10 5 -10 10 0 6 5 10 10 10 6 0 10 -4 10 -10z m30 0
c0 -5 -4 -10 -10 -10 -5 0 -10 5 -10 10 0 6 5 10 10 10 6 0 10 -4 10 -10z
m100 0 c0 -5 -4 -10 -10 -10 -5 0 -10 5 -10 10 0 6 5 10 10 10 6 0 10 -4 10
-10z m60 0 c0 -5 -4 -10 -10 -10 -5 0 -10 5 -10 10 0 6 5 10 10 10 6 0 10 -4
10 -10z m35 0 c3 -5 -1 -10 -9 -10 -9 0 -16 5 -16 10 0 6 4 10 9 10 6 0 13 -4
16 -10z m-575 -18 c0 -4 -28 -6 -62 -5 -73 1 -71 1 -65 11 6 9 127 3 127 -6z
m200 3 c0 -6 -27 -10 -60 -10 -33 0 -60 4 -60 10 0 6 27 10 60 10 33 0 60 -4
60 -10z m-690 -25 c0 -5 -4 -10 -10 -10 -5 0 -10 5 -10 10 0 6 5 10 10 10 6 0
10 -4 10 -10z m40 0 c0 -5 -7 -10 -15 -10 -8 0 -15 5 -15 10 0 6 7 10 15 10 8
0 15 -4 15 -10z m70 0 c0 -5 -9 -10 -20 -10 -11 0 -20 5 -20 10 0 6 9 10 20
10 11 0 20 -4 20 -10z m80 0 c0 -5 -4 -10 -10 -10 -5 0 -10 5 -10 10 0 6 5 10
10 10 6 0 10 -4 10 -10z m40 0 c0 -5 -4 -10 -10 -10 -5 0 -10 5 -10 10 0 6 5
10 10 10 6 0 10 -4 10 -10z m30 0 c0 -5 -4 -10 -10 -10 -5 0 -10 5 -10 10 0 6
5 10 10 10 6 0 10 -4 10 -10z m40 0 c0 -5 -4 -10 -10 -10 -5 0 -10 5 -10 10 0
6 5 10 10 10 6 0 10 -4 10 -10z m470 0 c0 -5 -7 -10 -15 -10 -8 0 -15 5 -15
10 0 6 7 10 15 10 8 0 15 -4 15 -10z m30 0 c0 -5 -4 -10 -10 -10 -5 0 -10 5
-10 10 0 6 5 10 10 10 6 0 10 -4 10 -10z m40 0 c0 -5 -4 -10 -10 -10 -5 0 -10
5 -10 10 0 6 5 10 10 10 6 0 10 -4 10 -10z m30 0 c0 -5 -4 -10 -10 -10 -5 0
-10 5 -10 10 0 6 5 10 10 10 6 0 10 -4 10 -10z m100 0 c0 -5 -4 -10 -10 -10
-5 0 -10 5 -10 10 0 6 5 10 10 10 6 0 10 -4 10 -10z m60 0 c0 -5 -4 -10 -10
-10 -5 0 -10 5 -10 10 0 6 5 10 10 10 6 0 10 -4 10 -10z m40 0 c0 -5 -7 -10
-15 -10 -8 0 -15 5 -15 10 0 6 7 10 15 10 8 0 15 -4 15 -10z m-580 -10 c0 -6
-28 -10 -65 -10 -37 0 -65 4 -65 10 0 6 28 10 65 10 37 0 65 -4 65 -10z m200
0 c0 -6 -27 -10 -60 -10 -33 0 -60 4 -60 10 0 6 27 10 60 10 33 0 60 -4 60
-10z m-1573 -37 c-3 -10 -5 -4 -5 12 0 17 2 24 5 18 2 -7 2 -21 0 -30z m920
21 c-3 -3 -12 -4 -19 -1 -8 3 -5 6 6 6 11 1 17 -2 13 -5z m66 -1 c-7 -2 -19
-2 -25 0 -7 3 -2 5 12 5 14 0 19 -2 13 -5z m87 -3 c0 -5 -2 -10 -4 -10 -3 0
-8 5 -11 10 -3 6 -1 10 4 10 6 0 11 -4 11 -10z m610 0 c0 -5 -2 -10 -4 -10 -3
0 -8 5 -11 10 -3 6 -1 10 4 10 6 0 11 -4 11 -10z m-385 -18 c78 -22 84 -44 18
-60 -58 -13 -198 -10 -235 6 -20 8 -25 16 -21 32 3 11 7 19 10 17 2 -3 25 1
51 8 63 18 105 17 177 -3z m75 -2 c0 -5 -2 -10 -4 -10 -3 0 -8 5 -11 10 -3 6
-1 10 4 10 6 0 11 -4 11 -10z m200 0 c0 -6 -26 -10 -59 -10 -33 0 -63 5 -66
10 -4 6 18 10 59 10 37 0 66 -4 66 -10z m-1506 -121 l7 -61 -28 32 -29 32 15
60 c15 55 16 57 22 29 4 -17 9 -58 13 -92z m816 111 c0 -5 -4 -10 -10 -10 -5
0 -10 5 -10 10 0 6 5 10 10 10 6 0 10 -4 10 -10z m40 0 c0 -5 -7 -10 -15 -10
-8 0 -15 5 -15 10 0 6 7 10 15 10 8 0 15 -4 15 -10z m70 0 c0 -5 -9 -10 -20
-10 -11 0 -20 5 -20 10 0 6 9 10 20 10 11 0 20 -4 20 -10z m660 0 c0 -5 -7
-10 -15 -10 -8 0 -15 5 -15 10 0 6 7 10 15 10 8 0 15 -4 15 -10z m30 0 c0 -5
-4 -10 -10 -10 -5 0 -10 5 -10 10 0 6 5 10 10 10 6 0 10 -4 10 -10z m40 0 c0
-5 -4 -10 -10 -10 -5 0 -10 5 -10 10 0 6 5 10 10 10 6 0 10 -4 10 -10z m30 0
c0 -5 -4 -10 -10 -10 -5 0 -10 5 -10 10 0 6 5 10 10 10 6 0 10 -4 10 -10z
m100 0 c0 -5 -4 -10 -10 -10 -5 0 -10 5 -10 10 0 6 5 10 10 10 6 0 10 -4 10
-10z m60 0 c0 -5 -4 -10 -10 -10 -5 0 -10 5 -10 10 0 6 5 10 10 10 6 0 10 -4
10 -10z m35 0 c-3 -5 -10 -10 -16 -10 -5 0 -9 5 -9 10 0 6 7 10 16 10 8 0 12
-4 9 -10z m-402 -17 c-18 -2 -48 -2 -65 0 -18 2 -4 4 32 4 36 0 50 -2 33 -4z
m838 -43 c15 -50 15 -50 -11 -75 -14 -14 -28 -25 -31 -25 -3 0 0 34 5 75 5 41
12 75 15 75 3 0 13 -23 22 -50z m-2475 2 c-9 -8 -26 10 -26 26 1 15 2 15 15
-2 8 -11 13 -21 11 -24z m974 23 c0 -8 -4 -15 -10 -15 -5 0 -10 7 -10 15 0 8
5 15 10 15 6 0 10 -7 10 -15z m34 -6 c-3 -5 -10 -7 -15 -3 -5 3 -7 10 -3 15 3
5 10 7 15 3 5 -3 7 -10 3 -15z m23 -1 c-3 -8 -6 -5 -6 6 -1 11 2 17 5 13 3 -3
4 -12 1 -19z m48 13 c7 -12 -12 -24 -25 -16 -11 7 -4 25 10 25 5 0 11 -4 15
-9z m659 -12 c-3 -5 -10 -7 -15 -3 -5 3 -7 10 -3 15 3 5 10 7 15 3 5 -3 7 -10
3 -15z m36 6 c0 -8 -4 -15 -10 -15 -5 0 -10 7 -10 15 0 8 5 15 10 15 6 0 10
-7 10 -15z m40 0 c0 -8 -4 -15 -10 -15 -5 0 -10 7 -10 15 0 8 5 15 10 15 6 0
10 -7 10 -15z m30 0 c0 -8 -4 -15 -10 -15 -5 0 -10 7 -10 15 0 8 5 15 10 15 6
0 10 -7 10 -15z m100 0 c0 -8 -4 -15 -10 -15 -5 0 -10 7 -10 15 0 8 5 15 10
15 6 0 10 -7 10 -15z m17 -7 c-3 -8 -6 -5 -6 6 -1 11 2 17 5 13 3 -3 4 -12 1
-19z m43 7 c0 -8 -4 -15 -10 -15 -5 0 -10 7 -10 15 0 8 5 15 10 15 6 0 10 -7
10 -15z m34 -6 c-3 -5 -10 -7 -15 -3 -5 3 -7 10 -3 15 3 5 10 7 15 3 5 -3 7
-10 3 -15z m480 -46 c-1 -13 2 -23 8 -23 6 0 8 7 5 15 -4 8 -1 17 5 21 8 5 9
-14 4 -67 -4 -41 -10 -101 -12 -133 -7 -95 -14 -78 -15 35 -1 57 -3 131 -4
164 -2 36 0 50 4 35 4 -14 6 -35 5 -47z m36 36 c0 -5 -4 -9 -10 -9 -5 0 -10 7
-10 16 0 8 5 12 10 9 6 -3 10 -10 10 -16z m-1428 -11 c-7 -7 -12 -8 -12 -2 0
6 3 14 7 17 3 4 9 5 12 2 2 -3 -1 -11 -7 -17z m538 12 c0 -6 -26 -10 -59 -10
-33 0 -63 5 -66 10 -4 6 18 10 59 10 37 0 66 -4 66 -10z m-497 -6 c3 -4 2 -16
-4 -26 -13 -24 -33 -10 -23 15 6 18 16 21 27 11z m301 -2 c2 -4 0 -14 -5 -22
-8 -13 -10 -13 -18 0 -10 15 -6 30 9 30 5 0 11 -4 14 -8z m-494 -12 c0 -5 -4
-10 -10 -10 -5 0 -10 5 -10 10 0 6 5 10 10 10 6 0 10 -4 10 -10z m40 0 c0 -5
-7 -10 -15 -10 -8 0 -15 5 -15 10 0 6 7 10 15 10 8 0 15 -4 15 -10z m70 0 c0
-5 -9 -10 -20 -10 -11 0 -20 5 -20 10 0 6 9 10 20 10 11 0 20 -4 20 -10z m660
0 c0 -5 -7 -10 -15 -10 -8 0 -15 5 -15 10 0 6 7 10 15 10 8 0 15 -4 15 -10z
m30 0 c0 -5 -4 -10 -10 -10 -5 0 -10 5 -10 10 0 6 5 10 10 10 6 0 10 -4 10
-10z m40 0 c0 -5 -4 -10 -10 -10 -5 0 -10 5 -10 10 0 6 5 10 10 10 6 0 10 -4
10 -10z m30 0 c0 -5 -4 -10 -10 -10 -5 0 -10 5 -10 10 0 6 5 10 10 10 6 0 10
-4 10 -10z m100 0 c0 -5 -4 -10 -10 -10 -5 0 -10 5 -10 10 0 6 5 10 10 10 6 0
10 -4 10 -10z m60 0 c0 -5 -4 -10 -10 -10 -5 0 -10 5 -10 10 0 6 5 10 10 10 6
0 10 -4 10 -10z m30 0 c0 -5 -4 -10 -10 -10 -5 0 -10 5 -10 10 0 6 5 10 10 10
6 0 10 -4 10 -10z m-2064 -61 l-15 -34 6 40 c7 47 16 67 21 44 2 -9 -4 -32
-12 -50z m894 12 l0 -50 -37 15 c-22 10 -57 14 -91 12 l-56 -3 1 33 c1 17 2
34 2 37 1 3 42 5 91 5 l90 0 0 -49z m361 40 c-7 -5 -16 -13 -20 -19 -4 -7 -12
-7 -20 -3 -20 13 -4 31 27 31 19 0 23 -3 13 -9z m204 -1 c11 -18 -6 -32 -22
-18 -9 7 -28 11 -43 10 -16 -2 -31 1 -35 7 -4 7 11 11 44 11 27 0 53 -4 56
-10z m235 0 c0 -6 -29 -10 -66 -10 -41 0 -63 4 -59 10 3 6 33 10 66 10 33 0
59 -4 59 -10z m953 -12 c3 -13 8 -34 12 -48 4 -15 -2 -10 -14 14 -23 43 -26
56 -12 56 5 0 11 -10 14 -22z m-1953 -28 c0 -22 -5 -30 -17 -30 -10 0 -29 -9
-43 -20 -21 -16 -41 -20 -126 -20 -55 0 -103 3 -107 6 -10 10 -151 13 -168 3
-15 -8 -17 -3 -17 39 0 26 2 49 3 52 2 3 109 4 239 2 l236 -3 0 -29z m460 36
c0 -3 -4 -8 -10 -11 -5 -3 -10 -1 -10 4 0 6 5 11 10 11 6 0 10 -2 10 -4z m215
-32 c-12 -9 -13 -13 -3 -17 7 -3 -3 -3 -22 0 -19 3 -45 14 -58 24 l-23 18 23
3 c13 2 40 -1 61 -7 33 -8 36 -11 22 -21z m-1321 8 c5 -9 -43 -86 -50 -79 -6
5 30 87 38 87 4 0 9 -4 12 -8z m956 -2 c0 -5 -4 -10 -10 -10 -5 0 -10 5 -10
10 0 6 5 10 10 10 6 0 10 -4 10 -10z m40 0 c0 -5 -4 -10 -9 -10 -6 0 -13 5
-16 10 -3 6 1 10 9 10 9 0 16 -4 16 -10z m70 0 c0 -5 -9 -10 -20 -10 -11 0
-20 5 -20 10 0 6 9 10 20 10 11 0 20 -4 20 -10z m389 -27 c-1 -38 -1 -38 -9
-9 -8 27 -6 46 6 46 2 0 4 -17 3 -37z m271 27 c0 -5 -4 -10 -9 -10 -6 0 -13 5
-16 10 -3 6 1 10 9 10 9 0 16 -4 16 -10z m30 0 c0 -5 -4 -10 -10 -10 -5 0 -10
5 -10 10 0 6 5 10 10 10 6 0 10 -4 10 -10z m40 0 c0 -5 -4 -10 -10 -10 -5 0
-10 5 -10 10 0 6 5 10 10 10 6 0 10 -4 10 -10z m30 0 c0 -5 -4 -10 -10 -10 -5
0 -10 5 -10 10 0 6 5 10 10 10 6 0 10 -4 10 -10z m100 0 c0 -5 -4 -10 -10 -10
-5 0 -10 5 -10 10 0 6 5 10 10 10 6 0 10 -4 10 -10z m60 0 c0 -5 -4 -10 -10
-10 -5 0 -10 5 -10 10 0 6 5 10 10 10 6 0 10 -4 10 -10z m35 0 c-3 -5 -10 -10
-16 -10 -5 0 -9 5 -9 10 0 6 7 10 16 10 8 0 12 -4 9 -10z m566 -40 c10 -22 15
-40 11 -40 -12 1 -52 71 -46 81 8 14 14 7 35 -41z m-941 30 c0 -6 -26 -10 -59
-10 -33 0 -63 5 -66 10 -4 6 18 10 59 10 37 0 66 -4 66 -10z m-395 -27 c50
-26 100 -21 100 10 0 18 42 20 48 3 7 -18 -8 -31 -48 -40 -16 -4 -40 -16 -51
-27 -23 -21 -23 -52 -4 -126 8 -30 6 -33 -15 -33 -22 0 -23 2 -17 65 5 62 3
68 -23 95 -16 17 -35 30 -44 30 -15 0 -51 28 -51 40 0 14 66 3 105 -17z m-258
11 c-3 -3 -12 -4 -19 -1 -8 3 -5 6 6 6 11 1 17 -2 13 -5z m66 -1 c-7 -2 -19
-2 -25 0 -7 3 -2 5 12 5 14 0 19 -2 13 -5z m51 -17 c-3 -9 -10 -16 -15 -16 -6
0 -5 9 1 21 13 24 24 20 14 -5z m613 18 c-3 -3 -12 -4 -19 -1 -8 3 -5 6 6 6
11 1 17 -2 13 -5z m33 -4 c0 -5 -2 -10 -4 -10 -3 0 -8 5 -11 10 -3 6 -1 10 4
10 6 0 11 -4 11 -10z m170 0 c0 -5 -4 -10 -10 -10 -5 0 -10 5 -10 10 0 6 5 10
10 10 6 0 10 -4 10 -10z m-1809 -137 c-18 -43 -34 -79 -36 -81 -2 -2 -1 36 1
85 2 48 4 99 4 113 l0 25 32 -32 31 -32 -32 -78z m1028 101 c-6 -8 -17 -14
-24 -14 -10 0 -11 5 -2 24 9 18 15 22 25 14 9 -8 9 -14 1 -24z m501 21 c0 -6
-26 -9 -62 -8 -76 2 -70 1 -65 11 7 11 127 9 127 -3z m833 -97 c2 -60 0 -105
-4 -102 -5 3 -9 12 -9 20 0 8 -11 37 -25 66 -14 28 -25 56 -25 62 0 10 51 68
56 63 1 -1 4 -50 7 -109z m-2462 45 c1 -69 7 -122 15 -143 4 -12 3 -13 -7 -2
-7 6 -24 12 -38 12 -21 0 -29 9 -44 42 l-17 42 27 39 c44 63 47 67 55 67 5 0
9 -26 9 -57z m1029 49 c0 -10 -89 -32 -126 -32 -14 0 -24 6 -24 15 0 11 17 15
73 18 39 1 73 4 75 5 1 1 2 -2 2 -6z m685 -1 c-16 -14 -55 -23 -55 -12 0 8 16
14 55 20 5 0 5 -2 0 -8z m325 -17 c0 -17 -49 -19 -85 -2 -39 17 -30 23 30 20
39 -3 55 -8 55 -18z m517 -7 c13 -17 30 -42 39 -54 14 -20 14 -24 -6 -62 -13
-26 -27 -41 -39 -41 -11 0 -26 -3 -35 -6 -12 -5 -14 1 -11 28 5 39 14 137 15
156 0 21 14 13 37 -21z m-1771 14 c5 -5 26 -14 47 -21 21 -7 36 -14 34 -16 -2
-3 -33 -13 -68 -23 l-65 -18 -51 37 c-29 21 -49 40 -46 44 10 9 138 7 149 -3z
m1099 -1 c3 -4 -8 -16 -23 -25 -15 -10 -35 -26 -45 -37 -10 -10 -22 -16 -26
-14 -4 3 -21 8 -37 11 -50 9 -120 34 -99 35 11 0 38 9 60 19 41 19 160 27 170
11z m-1250 -25 l30 -25 -27 9 c-15 6 -44 8 -65 5 l-38 -6 30 20 c38 26 35 26
70 -3z m425 -25 c0 -47 4 -62 37 -138 8 -19 13 -35 11 -37 -2 -3 -44 36 -92
84 -84 85 -97 110 -58 112 9 0 33 6 52 13 19 8 38 14 43 15 4 0 7 -21 7 -49z
m358 38 c-2 -6 -10 -13 -16 -14 -7 -1 -8 0 -2 3 5 2 8 9 4 14 -3 5 0 9 6 9 7
0 10 -5 8 -12z m169 -34 c2 -5 -38 -49 -89 -99 -50 -49 -89 -81 -85 -70 3 11
15 46 26 77 12 32 21 75 21 96 l0 39 62 -17 c34 -9 63 -21 65 -26z m383 10 c0
-4 -15 -4 -32 -1 -18 2 -44 0 -58 -4 -24 -9 -24 -8 4 15 28 23 32 24 58 10 15
-8 28 -17 28 -20z m-781 17 c23 -15 -2 -19 -29 -5 -22 12 -22 14 -5 14 11 0
26 -4 34 -9z m161 -1 c0 -5 -5 -10 -11 -10 -5 0 -7 5 -4 10 3 6 8 10 11 10 2
0 4 -4 4 -10z m268 3 c-10 -2 -26 -2 -35 0 -10 3 -2 5 17 5 19 0 27 -2 18 -5z
m-1338 -7 c0 -3 -16 -17 -35 -32 l-36 -27 -24 23 c-38 36 -30 8 10 -33 19 -20
35 -38 35 -41 0 -2 -21 4 -47 14 -43 16 -48 21 -45 46 2 15 11 34 20 41 16 11
122 19 122 9z m102 -59 l47 -37 -22 -33 c-21 -32 -23 -33 -57 -20 -19 6 -42
12 -51 13 -9 0 -31 14 -48 32 l-31 31 23 16 c12 8 33 26 47 38 19 18 27 20 35
11 6 -7 31 -30 57 -51z m1978 53 c0 -4 -11 -17 -24 -29 l-24 -23 -43 32 -44
31 68 -2 c37 -1 67 -5 67 -9z m-1892 -36 c2 -1 -1 -12 -7 -23 -11 -20 -12 -20
-56 11 -25 18 -45 35 -45 39 0 6 94 -18 108 -27z m35 24 c-15 -7 -30 -7 -50 0
-26 10 -24 10 22 11 42 0 46 -2 28 -11z m1580 5 c-7 -2 -19 -2 -25 0 -7 3 -2
5 12 5 14 0 19 -2 13 -5z m65 -15 c-73 -67 -67 -64 -82 -42 -8 10 -18 16 -22
11 -4 -4 7 -22 25 -41 18 -19 29 -36 23 -40 -5 -3 -37 3 -71 12 -50 14 -65 24
-82 51 -11 18 -19 35 -17 36 2 2 36 -19 77 -46 67 -44 91 -56 91 -45 0 6 -92
71 -115 81 -19 8 -19 9 3 13 13 2 30 -2 38 -9 10 -8 18 -9 22 -3 7 10 95 41
121 43 8 1 4 -8 -11 -21z m98 -3 c16 -14 35 -25 42 -25 19 0 14 -14 -15 -43
-29 -27 -91 -57 -119 -57 -15 0 -53 37 -54 52 0 11 94 98 106 98 6 0 24 -11
40 -25z m-1131 -5 c8 0 20 -8 27 -19 15 -22 18 -22 58 -11 l30 9 0 -57 c0 -50
-3 -59 -22 -67 -18 -8 -27 -5 -48 15 -31 31 -81 130 -73 144 4 6 8 6 11 -2 2
-7 10 -12 17 -12z m91 -2 c4 -5 -6 -8 -22 -6 -15 2 -29 8 -31 14 -5 14 44 6
53 -8z m164 2 c-20 -13 -63 -13 -55 0 4 6 9 9 13 6 4 -2 16 0 27 4 25 9 35 2
15 -10z m62 -3 c-5 -7 -15 -28 -21 -48 -15 -46 -72 -102 -95 -93 -14 5 -16 17
-14 63 l3 56 33 -3 c26 -3 39 2 58 23 23 25 56 27 36 2z m608 19 c0 -3 -4 -8
-10 -11 -5 -3 -10 -1 -10 4 0 6 5 11 10 11 6 0 10 -2 10 -4z m351 -47 c-8 -9
-101 -49 -101 -44 0 2 21 24 48 49 44 42 47 44 53 23 3 -12 3 -25 0 -28z
m-1713 0 c-14 -3 -37 -14 -52 -24 -35 -23 -41 -15 -22 28 l15 36 42 -17 c39
-15 40 -17 17 -23z m175 8 c-11 -12 -31 -35 -44 -51 -13 -16 -38 -46 -54 -65
-109 -128 -112 -144 -74 -345 19 -104 27 -127 56 -162 20 -25 29 -44 23 -50
-6 -6 1 -22 17 -43 41 -52 123 -232 123 -268 0 -18 6 -52 14 -75 46 -143 69
-228 62 -228 -10 0 -56 24 -57 29 0 3 -2 15 -4 26 -7 45 -27 192 -30 223 -6
56 -17 96 -35 127 -53 91 -108 203 -103 209 4 3 -7 23 -24 44 -16 20 -33 51
-36 67 -4 17 -14 64 -22 105 -8 41 -19 95 -24 120 -7 32 -6 49 2 59 7 8 12 26
13 40 1 14 11 46 22 71 27 60 57 144 55 151 -1 4 25 12 58 19 33 7 62 17 65
22 3 5 9 7 12 4 3 -4 -4 -16 -15 -29z m22 -49 c-16 -40 -29 -74 -30 -76 -1 -1
-16 1 -33 4 l-30 6 56 73 c31 39 59 71 61 69 2 -2 -9 -36 -24 -76z m822 -16
c40 -45 41 -47 20 -54 -41 -12 -45 -8 -72 60 -39 96 -40 100 -14 69 13 -15 43
-49 66 -75z m92 52 c7 -6 80 -228 76 -231 -1 -2 -16 16 -33 40 -17 23 -45 58
-61 77 -17 19 -34 40 -38 45 -5 6 -27 33 -50 61 l-42 50 71 -18 c39 -10 74
-21 77 -24z m121 28 c0 -10 5 -23 11 -29 25 -25 1 -28 -46 -7 l-50 22 35 16
c45 20 50 20 50 -2z m-1324 -31 c-11 -31 -18 -36 -77 -52 -81 -22 -95 -12 -48
38 46 51 45 50 94 49 l42 0 -11 -35z m346 -63 c-26 -15 -50 -28 -53 -28 -3 0
3 27 15 60 l21 59 32 -31 33 -32 -48 -28z m696 25 c11 -29 18 -53 15 -53 -5 0
-89 46 -101 55 -1 1 10 16 25 33 16 17 31 27 34 24 3 -4 15 -31 27 -59z m228
22 c10 -8 26 -15 34 -15 8 0 40 -17 71 -38 l57 -37 -27 -47 -27 -46 -19 29
c-11 16 -23 29 -27 29 -5 0 -8 5 -8 11 0 6 -17 32 -38 58 -46 55 -56 71 -45
71 5 0 18 -7 29 -15z m-1219 -67 c-28 -40 -55 -75 -58 -78 -3 -3 -10 -13 -16
-24 -9 -16 -13 -13 -33 25 l-22 44 32 25 c39 31 121 78 137 79 7 1 -11 -32
-40 -71z m1801 12 l30 -60 -68 0 c-38 0 -101 -7 -141 -15 -40 -9 -74 -13 -76
-11 -3 3 12 14 34 24 21 11 58 35 83 53 35 26 95 65 107 68 1 1 15 -26 31 -59z
m-2265 23 c61 -40 69 -45 128 -80 60 -36 54 -39 -41 -18 -36 8 -95 14 -132 15
l-66 0 26 55 c15 30 30 55 35 55 4 0 26 -12 50 -27z m519 -24 c-49 -116 -74
-202 -68 -238 5 -32 2 -29 -28 29 l-33 64 34 46 c19 25 50 69 70 98 20 29 38
51 40 49 2 -2 -5 -24 -15 -48z m1630 24 c-7 -3 -36 -20 -63 -39 -61 -41 -77
-44 -30 -6 43 34 94 62 101 55 3 -3 -1 -8 -8 -10z m-662 -73 c6 0 10 -4 10
-10 0 -12 -27 -13 -32 -1 -1 5 -10 10 -18 12 -15 2 -112 -8 -164 -18 -27 -5
-27 -3 20 43 l49 49 63 -37 c34 -21 67 -38 72 -38z m232 -10 l63 -85 -34 -65
c-32 -63 -33 -64 -27 -25 4 31 -4 66 -34 154 -22 62 -38 112 -35 110 2 -2 32
-42 67 -89z m-1629 63 c18 -9 41 -18 52 -19 11 -2 34 -6 51 -9 20 -4 56 1 100
14 37 11 69 19 71 17 4 -4 -132 -96 -143 -96 -6 0 -25 16 -44 35 -34 35 -65
50 -39 18 13 -15 12 -15 -16 0 -37 20 -83 56 -72 57 4 0 22 -8 40 -17z m776
-27 l43 -44 -49 5 c-26 3 -65 9 -85 13 -26 5 -45 3 -64 -6 -15 -8 -32 -13 -38
-10 -6 2 -2 7 9 12 11 4 45 23 75 41 30 18 57 33 60 33 3 0 25 -20 49 -44z
m1024 13 c58 -17 78 -19 106 -10 19 6 36 9 38 8 1 -2 -15 -21 -37 -42 -30 -29
-44 -37 -54 -30 -8 6 -43 29 -77 53 -35 23 -60 42 -55 42 5 0 41 -9 79 -21z
m-677 -20 c-8 -12 -12 -27 -9 -35 8 -21 -17 -84 -33 -84 -12 0 -10 8 6 40 24
48 25 51 3 43 -12 -4 -8 5 11 25 34 37 44 41 22 11z m-1396 -13 c0 -19 -4 -23
-20 -19 -11 3 -20 14 -20 24 0 12 7 19 20 19 14 0 20 -7 20 -24z m2511 10 c5
3 9 -5 9 -18 -1 -22 -1 -22 -15 -4 -8 11 -15 25 -14 30 0 6 3 5 6 -2 2 -6 9
-10 14 -6z m69 -1 c0 -16 -34 -38 -44 -28 -3 3 -6 15 -6 25 0 13 7 18 25 18
15 0 25 -6 25 -15z m-2553 -27 c-3 -7 -5 -2 -5 12 0 14 2 19 5 13 2 -7 2 -19
0 -25z m1132 17 c8 0 17 -7 19 -15 5 -13 3 -13 -11 -1 -25 20 -21 0 8 -39 30
-41 31 -50 5 -50 -13 0 -20 7 -20 19 0 10 -7 35 -15 54 -16 39 -19 59 -7 42 4
-5 13 -10 21 -10z m-351 -2 c22 -5 20 -8 -23 -29 -59 -30 -61 -30 -33 5 26 34
25 33 56 24z m490 0 c-16 -2 -40 -2 -55 0 -16 2 -3 4 27 4 30 0 43 -2 28 -4z
m485 -22 c35 -37 35 -48 0 -23 -16 11 -39 23 -53 27 -24 8 -24 8 -5 16 29 11
28 12 58 -20z m296 -68 c-57 -39 -61 -40 -55 -10 3 12 8 39 11 59 l6 37 43
-27 43 -27 -48 -32z m-1578 60 c3 -41 7 -62 12 -77 9 -22 4 -20 -47 15 l-45
32 32 23 c40 28 47 29 48 7z m561 -39 l91 -46 117 1 118 0 89 44 c81 41 174
62 158 37 -3 -6 -13 -10 -21 -10 -8 0 -67 -27 -132 -59 -64 -32 -140 -69 -168
-81 l-51 -21 -165 80 c-91 45 -170 81 -176 81 -6 0 -14 5 -17 10 -4 6 8 10 30
10 22 0 69 -17 127 -46z m168 11 c0 -5 -5 -3 -10 5 -5 8 -10 20 -10 25 0 6 5
3 10 -5 5 -8 10 -19 10 -25z m107 27 c7 -2 10 -9 7 -14 -4 -6 -10 -5 -15 3 -7
11 -9 11 -9 -1 0 -13 -2 -13 -9 -1 -7 11 -13 6 -26 -18 -9 -18 -18 -31 -19
-29 -2 1 -10 18 -19 36 l-16 33 47 -2 c26 -1 53 -4 59 -7z m-1205 -22 l-34
-21 -31 20 -32 21 65 0 65 0 -33 -20z m88 0 c0 -4 17 -24 37 -44 21 -20 32
-36 26 -36 -7 0 -14 4 -17 9 -3 5 -23 12 -43 17 -21 4 -40 8 -43 9 -3 1 -18 5
-33 10 l-29 8 39 22 c36 20 63 23 63 5z m630 12 c0 -4 -11 -19 -24 -33 -12
-14 -44 -53 -70 -88 -40 -55 -46 -70 -47 -115 -1 -50 -1 -50 -15 28 l-14 78
47 59 c30 37 60 63 78 68 40 12 45 12 45 3z m126 -45 c3 -3 -21 -8 -53 -12
-32 -3 -68 -8 -81 -11 -22 -4 -22 -4 5 34 l28 39 48 -22 c26 -13 50 -25 53
-28z m130 43 c12 0 25 -10 32 -25 6 -14 10 -25 8 -25 -1 0 -27 14 -57 31 -30
17 -43 28 -29 25 14 -3 34 -6 46 -6z m344 -19 c-30 -15 -56 -27 -58 -25 -2 1
1 11 7 23 10 18 26 23 91 29 8 1 -10 -11 -40 -27z m235 -4 c11 -17 21 -35 23
-38 2 -5 -119 7 -143 15 -8 2 73 49 95 55 3 0 14 -14 25 -32z m78 11 c9 -5 17
-12 17 -17 0 -5 12 -8 26 -8 25 0 44 -16 44 -37 0 -6 -9 0 -21 13 -12 12 -24
20 -27 16 -3 -3 10 -22 30 -43 l36 -37 -13 -70 c-21 -102 -17 -134 4 -37 10
45 22 86 26 90 4 4 5 -2 2 -13 -3 -11 -15 -72 -28 -135 -16 -87 -29 -125 -51
-158 -16 -23 -27 -46 -24 -50 3 -5 -4 -21 -15 -38 -10 -16 -41 -74 -69 -129
-40 -81 -51 -116 -60 -185 -16 -124 -20 -135 -37 -118 -11 12 -11 20 2 57 8
24 15 61 15 82 0 22 4 47 10 57 30 55 114 238 112 245 -1 5 2 6 7 3 5 -3 14 1
20 8 9 10 9 16 1 21 -7 4 2 22 24 49 37 46 42 69 38 196 -2 64 -3 67 -72 157
-38 51 -70 95 -70 98 0 7 49 -4 73 -17z m737 18 c0 -3 -14 -11 -31 -20 -29
-14 -34 -14 -67 4 l-37 19 68 1 c37 0 67 -2 67 -4z m-2057 -82 c60 -10 34 -17
-55 -15 -70 2 -84 5 -97 23 -8 12 -22 28 -33 37 -34 29 -18 28 65 -5 45 -19
99 -37 120 -40z m-14 36 c45 -23 18 -27 -36 -4 -32 13 -64 24 -70 24 -7 0 -13
4 -13 9 0 9 87 -11 119 -29z m114 -27 c-6 -16 -8 -15 -14 7 -4 14 -7 34 -8 45
0 17 2 15 14 -7 8 -15 12 -35 8 -45z m1469 24 c-3 -30 -7 -35 -17 -27 -11 9
-10 16 3 40 9 16 17 28 18 27 1 -1 -1 -19 -4 -40z m253 -7 l-39 -40 -81 1 -80
1 70 23 c39 13 90 32 115 43 25 11 47 18 49 16 3 -3 -13 -22 -34 -44z m115 34
l33 -17 -24 -12 c-13 -7 -42 -16 -64 -20 -22 -4 -46 -11 -52 -17 -7 -6 -13 -7
-13 -3 0 5 77 81 86 85 0 0 16 -7 34 -16z m-185 -10 c-22 -9 -55 -22 -73 -30
-20 -9 -31 -10 -26 -3 10 17 85 49 114 48 20 0 18 -3 -15 -15z m-861 -18 c-3
-9 -13 -16 -22 -16 -13 0 -12 3 3 20 20 23 29 21 19 -4z m-622 -18 c-12 -13
-22 -17 -22 -11 0 15 31 46 38 38 3 -3 -4 -15 -16 -27z m523 12 c3 -5 2 -10
-4 -10 -5 0 -13 5 -16 10 -3 6 -2 10 4 10 5 0 13 -4 16 -10z m-197 -19 c10 -6
2 -11 -25 -19 -21 -6 -69 -20 -108 -32 -38 -11 -78 -23 -87 -25 -9 -2 -26 -9
-38 -15 -34 -18 -42 -7 -15 22 14 15 25 32 25 38 0 5 3 10 8 11 4 0 16 2 27 4
11 3 49 7 84 10 36 3 67 8 70 10 7 8 45 5 59 -4z m622 -7 c30 -4 60 -9 66 -13
16 -8 67 -71 63 -76 -2 -2 -49 12 -104 30 -55 18 -119 38 -142 45 -60 18 -54
34 10 26 28 -3 77 -9 107 -12z m-1061 -58 c6 -4 11 -15 11 -24 0 -11 -12 -3
-35 22 -28 31 -33 42 -23 53 9 12 13 9 24 -15 6 -16 17 -33 23 -36z m1390 51
c8 -10 1 -23 -31 -53 l-41 -39 22 35 c12 19 25 43 28 53 6 20 7 21 22 4z
m-850 -38 c39 -18 71 -35 71 -38 0 -3 -80 -7 -178 -9 -97 -2 -193 -7 -212 -12
-23 -6 43 -8 183 -5 l217 4 0 -54 c0 -65 -1 -57 10 -95 5 -17 6 -29 2 -27 -36
21 -206 81 -392 139 -36 11 -67 22 -69 24 -10 9 17 24 69 38 30 8 91 26 135
39 44 14 83 25 86 26 4 0 38 -13 78 -30z m441 1 c41 -12 94 -28 117 -34 70
-20 60 -25 -38 -20 -52 2 -148 6 -214 8 -66 3 -122 5 -125 5 -2 1 27 17 65 36
77 38 82 38 195 5z m318 2 c6 -18 -15 -14 -22 4 -4 10 -1 14 6 12 6 -2 14 -10
16 -16z m-640 -141 c2 -46 -1 -80 -6 -77 -5 3 -9 29 -10 58 -1 29 -5 66 -8 82
-5 21 -3 27 7 24 10 -3 15 -29 17 -87z m44 32 c-2 -32 -7 -71 -12 -88 -6 -23
-8 -11 -9 51 -1 44 2 84 6 87 15 16 19 4 15 -50z m468 37 c0 -3 -96 -37 -213
-76 -116 -39 -220 -74 -229 -78 -15 -7 -18 -3 -18 25 0 19 3 57 6 86 l7 51
223 -1 c123 -1 224 -4 224 -7z m-825 -82 c77 -27 175 -60 218 -74 l77 -26 1
-42 c0 -22 3 -61 6 -85 l5 -45 -23 17 c-34 25 -157 109 -184 127 -12 8 -67 46
-121 84 -55 37 -111 74 -126 82 -31 16 -39 31 -10 19 9 -5 80 -30 157 -57z
m689 -31 c-181 -121 -298 -201 -304 -207 -39 -39 -41 -36 -35 46 8 101 8 100
42 107 34 6 403 133 411 141 3 3 10 6 15 6 6 0 -52 -42 -129 -93z m-873 51
c35 -51 132 -182 139 -188 3 -3 17 -21 30 -40 14 -19 32 -44 42 -54 10 -11 18
-23 18 -28 0 -4 5 -8 10 -8 6 0 10 3 10 8 0 7 -97 139 -153 206 -71 86 -54 76
69 -45 71 -69 139 -134 152 -145 l22 -21 -26 -24 c-15 -13 -28 -19 -31 -14 -2
6 -8 17 -14 25 -8 11 -12 12 -16 2 -3 -9 -19 -2 -51 22 -26 18 -88 61 -139 95
l-92 62 -3 89 c-2 50 0 90 4 90 4 0 17 -15 29 -32z m1049 -57 l0 -89 -102 -67
c-57 -37 -120 -81 -140 -97 -40 -32 -51 -28 -19 6 10 12 62 80 115 151 53 72
103 139 111 150 8 10 15 23 15 27 0 4 5 8 10 8 6 0 10 -36 10 -89z m-836 -62
c77 -54 146 -101 151 -106 6 -4 36 -26 68 -47 43 -30 57 -45 57 -64 0 -19 -4
-23 -17 -17 -10 4 -31 12 -48 18 -16 5 -44 20 -61 31 -33 23 -328 304 -305
291 7 -4 77 -52 155 -106z m606 -36 c-166 -161 -163 -158 -230 -183 -45 -17
-47 -17 -59 2 -7 11 -11 21 -9 23 2 1 46 31 98 67 52 36 127 87 165 113 39 27
89 61 112 77 23 16 45 33 48 39 4 5 11 9 17 9 6 0 -58 -66 -142 -147z m73 15
c-32 -40 -83 -106 -112 -146 l-54 -73 -21 20 -21 21 130 130 c71 71 131 128
133 126 2 -3 -23 -37 -55 -78z m-396 -20 c-2 -13 -4 -5 -4 17 -1 22 1 32 4 23
2 -10 2 -28 0 -40z m33 17 c0 -19 -4 -35 -10 -35 -5 0 -9 16 -8 35 1 19 5 35
10 35 4 0 8 -16 8 -35z m-445 -100 c22 -18 75 -55 117 -82 l77 -50 -23 -22
-23 -21 -104 106 c-57 58 -106 108 -109 111 -10 12 26 -11 65 -42z m808 -67
c-108 -108 -113 -112 -127 -93 -9 11 -16 23 -16 27 0 4 42 35 93 69 50 34 105
73 120 86 64 52 36 17 -70 -89z m-720 -76 c35 -35 39 -44 27 -52 -22 -14 -23
-13 -50 28 -14 20 -43 62 -66 92 -61 82 -62 91 -5 30 29 -30 71 -74 94 -98z
m798 121 c-12 -16 -45 -63 -74 -105 -52 -77 -64 -87 -83 -68 -6 6 23 43 80
105 91 96 115 117 77 68z m-591 -73 c0 -5 -4 -10 -10 -10 -5 0 -10 5 -10 10 0
6 5 10 10 10 6 0 10 -4 10 -10z m285 0 c3 -5 -1 -10 -10 -10 -9 0 -13 5 -10
10 3 6 8 10 10 10 2 0 7 -4 10 -10z m-315 -10 c0 -5 -4 -10 -10 -10 -5 0 -10
5 -10 10 0 6 5 10 10 10 6 0 10 -4 10 -10z m345 0 c3 -5 1 -10 -4 -10 -6 0
-11 5 -11 10 0 6 2 10 4 10 3 0 8 -4 11 -10z m-243 -17 c17 -5 16 -8 -4 -44
l-22 -39 -33 32 c-18 17 -33 37 -33 44 0 14 37 24 60 16 8 -2 23 -7 32 -9z
m92 -21 c17 -33 17 -33 -3 -22 -13 7 -21 21 -21 37 0 30 2 29 24 -15z m116 19
c-1 -7 -58 -71 -64 -71 -2 0 -13 15 -24 34 l-21 35 26 8 c27 9 83 5 83 -6z
m-320 -10 c0 -5 -14 -14 -30 -20 -21 -7 -29 -7 -24 0 5 8 33 24 52 28 1 1 2
-3 2 -8z m150 -26 c-21 -26 -31 -16 -13 11 9 15 19 21 21 15 2 -6 -2 -18 -8
-26z m219 24 c17 -6 31 -15 31 -21 0 -6 -8 -7 -17 -3 -10 4 -26 10 -35 12 -10
3 -18 9 -18 14 0 11 1 11 39 -2z m-483 -151 c17 -15 59 -35 99 -46 81 -24 57
-29 -28 -7 -72 19 -135 58 -148 93 -5 15 -19 44 -30 65 -30 58 -23 55 30 -14
27 -35 62 -76 77 -91z m658 77 c-22 -43 -47 -77 -68 -91 -36 -24 -139 -58
-158 -52 -7 3 18 13 55 23 66 18 117 57 117 88 0 7 -13 -2 -28 -20 -22 -26
-47 -38 -145 -67 -65 -20 -123 -38 -128 -41 -5 -4 -9 35 -9 94 0 56 3 101 6
101 3 0 20 -11 37 -24 29 -22 43 -25 160 -28 114 -3 128 -1 133 15 3 9 9 17
13 17 3 0 15 14 25 31 32 54 26 25 -10 -46z m-511 31 l25 -25 -84 -3 c-46 -2
-84 0 -84 3 0 4 20 12 45 19 25 7 48 17 51 21 9 15 22 10 47 -15z m353 -1 l59
-24 -84 -1 -84 0 23 25 c13 14 24 25 25 25 1 0 28 -11 61 -25z m-229 -182 c-2
-2 -58 13 -123 32 -99 30 -124 42 -151 71 l-32 34 122 0 c114 1 124 2 152 25
l30 25 3 -91 c1 -51 1 -93 -1 -96z m-287 7 c0 -16 11 -46 25 -66 18 -26 25
-50 25 -83 0 -45 3 -50 60 -101 58 -53 78 -81 43 -60 -10 5 -38 18 -63 29 -40
16 -48 24 -60 62 -7 24 -24 77 -36 116 -13 40 -27 91 -30 114 -7 40 -6 41 15
30 14 -8 21 -21 21 -41z m626 -25 c-9 -25 -16 -53 -16 -63 -1 -15 -2 -15 -16
3 -8 11 -12 26 -8 35 4 8 6 29 5 46 -1 23 4 33 21 41 30 14 34 -2 14 -62z
m-457 10 c52 -8 100 -15 108 -15 9 0 13 -15 13 -51 0 -27 -4 -48 -8 -45 -5 3
-31 8 -58 12 -72 9 -128 38 -165 86 -33 40 -33 41 -9 34 14 -3 67 -13 119 -21z
m376 -2 c-28 -46 -45 -53 -115 -53 -61 0 -68 -2 -80 -25 -22 -41 -42 -32 -38
17 l3 42 109 18 c60 9 111 20 114 23 17 16 22 1 7 -22z m-495 -28 c0 -14 34
-39 90 -67 22 -11 26 -16 11 -12 -53 14 -90 35 -110 63 -25 35 -29 60 -6 41 8
-7 15 -18 15 -25z m530 30 c0 -16 -25 -55 -36 -55 -10 0 -9 8 4 30 15 26 32
40 32 25z m-140 -75 c-20 -13 -43 -13 -35 0 3 6 16 10 28 10 18 0 19 -2 7 -10z
m218 -80 c45 -41 80 -75 78 -77 -1 -2 -22 7 -46 18 -24 12 -49 22 -54 23 -6 1
-26 10 -43 19 -18 10 -36 17 -40 15 -7 -1 -62 70 -63 82 0 3 20 3 44 0 37 -4
56 -16 124 -80z m-164 45 c20 -30 12 -31 -39 -6 -32 15 -36 20 -20 24 37 9 43
7 59 -18z m-256 -23 c49 3 52 2 52 -21 0 -13 -11 -44 -25 -67 l-25 -43 -38 22
c-45 26 -132 113 -132 132 0 11 12 10 58 -6 37 -13 76 -19 110 -17z m132 23
c-7 -8 -10 -22 -6 -30 3 -9 2 -14 -3 -11 -13 8 -38 -29 -89 -127 -8 -16 -16
-26 -19 -23 -5 5 31 80 61 128 8 14 8 20 -3 27 -9 6 -10 11 -2 15 6 4 11 2 11
-3 0 -6 5 -11 10 -11 6 0 10 6 10 13 0 15 20 37 33 37 5 0 4 -7 -3 -15z m175
-101 c14 -27 25 -50 25 -51 0 -2 -19 -3 -43 -3 -45 0 -46 1 -115 142 -2 3 22
-4 53 -16 48 -20 59 -30 80 -72z m-118 16 l32 -70 -53 0 -54 0 9 38 c5 20 12
52 16 70 3 17 8 32 12 32 3 -1 20 -32 38 -70z m-290 -20 c14 -11 21 -20 15
-20 -18 0 -82 61 -82 77 0 11 7 7 20 -10 12 -15 32 -35 47 -47z m192 -70 c-16
-63 -30 -125 -31 -137 -3 -27 -6 -28 -29 -7 -14 13 -16 21 -8 41 5 14 14 45
19 68 8 37 70 159 76 152 2 -1 -10 -54 -27 -117z m398 40 c6 0 14 -3 16 -8 3
-4 -29 -8 -71 -9 l-77 -3 -22 40 c-13 21 -23 41 -23 44 0 2 37 -11 83 -30 45
-18 87 -34 94 -34z m-733 -10 l25 -9 -26 -63 c-14 -35 -27 -65 -29 -67 -2 -2
-4 30 -4 72 0 43 2 77 4 77 3 0 16 -4 30 -10z m211 -17 c19 -9 35 -23 35 -30
0 -20 -12 -16 -50 17 -40 33 -36 37 15 13z m-315 -33 c-30 -38 -50 -47 -57
-24 -2 9 65 63 80 64 5 0 -6 -18 -23 -40z m205 16 c29 -7 29 -8 10 -22 -42
-31 -89 -70 -107 -88 -30 -32 -27 -15 9 62 25 52 38 70 46 64 7 -5 25 -12 42
-16z m368 2 c-2 -5 0 -8 5 -8 7 0 21 -21 41 -64 2 -5 -10 1 -27 13 -22 15 -29
27 -25 39 6 15 4 15 -9 4 -13 -10 -22 -11 -37 -2 -32 16 -25 25 18 25 22 0 37
-3 34 -7z m162 -73 c22 -44 42 -84 44 -90 2 -5 -35 31 -82 80 -48 50 -87 90
-87 90 0 0 19 0 43 0 l42 0 40 -80z m135 61 c0 -14 -4 -27 -9 -30 -5 -3 -12
-23 -17 -43 -8 -42 -8 -41 -17 -63 -3 -8 -7 -21 -9 -29 -3 -11 -98 160 -98
178 0 3 34 7 75 9 74 2 75 2 75 -22z m-820 -64 l0 -77 -35 -11 c-19 -6 -35 -9
-35 -7 0 2 9 23 19 46 10 23 25 61 32 85 6 23 14 42 16 42 1 0 3 -35 3 -78z
m470 31 c0 -3 -22 -30 -50 -59 -27 -29 -50 -50 -50 -47 0 6 26 109 36 141 3
10 11 8 34 -8 16 -12 30 -24 30 -27z m-506 0 c-8 -16 -20 -41 -26 -58 -10 -27
-12 -28 -15 -8 -2 12 6 38 19 57 27 42 44 48 22 9z m274 7 c19 -5 23 -9 12
-13 -8 -4 -28 -12 -45 -18 -16 -7 -32 -13 -35 -14 -15 -5 -64 -27 -83 -36 -29
-15 -18 -4 51 52 31 26 61 44 65 42 5 -3 21 -9 35 -13z m82 -20 c0 -11 -4 -20
-9 -20 -5 0 -7 9 -4 20 3 11 7 20 9 20 2 0 4 -9 4 -20z m210 -15 c0 -3 -14 -5
-31 -5 -27 0 -30 2 -19 15 9 11 17 12 31 4 10 -5 19 -12 19 -14z m76 -2 c-7
-7 -26 7 -26 19 0 6 6 6 15 -2 9 -7 13 -15 11 -17z m-707 3 c9 -10 7 -16 -5
-26 -19 -17 -47 -70 -40 -77 3 -3 15 11 27 31 11 20 23 36 25 36 2 0 4 -17 4
-38 0 -33 -3 -38 -33 -48 l-34 -10 2 35 c2 20 8 48 14 64 6 15 8 27 5 27 -3 0
-2 5 1 10 9 14 20 13 34 -4z m355 -77 c-19 -51 -39 -119 -44 -153 -6 -33 -16
-88 -21 -121 -6 -33 -12 -69 -14 -80 -1 -11 -3 -23 -4 -26 0 -4 -30 -19 -65
-34 -59 -25 -64 -30 -70 -64 -3 -20 -6 -54 -6 -77 0 -47 1 -46 -130 -95 -47
-17 -104 -40 -128 -51 -24 -10 -50 -18 -59 -16 -9 2 -35 30 -58 63 -47 67 -47
42 -1 208 l17 57 107 0 c105 0 109 1 135 28 l26 27 -20 80 c-11 44 -23 89 -25
100 -6 23 -2 26 173 121 37 20 75 43 84 50 8 8 19 14 22 14 4 0 28 13 55 30
26 16 50 30 53 30 4 0 -8 -41 -27 -91z m564 18 c-8 -47 -15 -67 -26 -67 -9 0
-12 6 -8 15 3 9 13 41 22 71 9 31 18 54 20 52 2 -2 -2 -34 -8 -71z m-989 -18
c-19 -63 -21 -66 -62 -77 -23 -7 -49 -16 -57 -19 -8 -4 1 9 20 28 40 39 71 76
96 114 9 14 18 24 20 22 2 -1 -6 -32 -17 -68z m701 47 c0 -1 -11 -16 -23 -34
l-24 -32 -11 26 c-20 42 -15 50 23 46 19 -2 35 -5 35 -6z m100 4 c0 -5 -7 -10
-15 -10 -8 0 -15 5 -15 10 0 6 7 10 15 10 8 0 15 -4 15 -10z m-346 -58 c-6
-50 -3 -66 19 -112 l26 -54 -27 -35 c-15 -20 -47 -65 -70 -101 -34 -50 -42
-58 -37 -35 9 43 24 125 29 160 6 53 55 235 63 235 2 0 0 -26 -3 -58z m284 40
c2 -7 -5 -12 -17 -12 -14 0 -19 5 -14 15 6 17 25 15 31 -3z m-418 3 c0 -3 -28
-19 -62 -36 -35 -17 -75 -40 -90 -50 -35 -25 -46 -24 -22 2 10 12 51 36 89 54
71 34 85 39 85 30z m308 -35 l11 -30 -49 0 -48 0 31 33 c18 18 35 31 39 30 3
-2 11 -16 16 -33z m197 30 c3 -5 1 -10 -4 -10 -6 0 -11 5 -11 10 0 6 2 10 4
10 3 0 8 -4 11 -10z m-25 -10 c0 -5 -2 -10 -4 -10 -3 0 -8 5 -11 10 -3 6 -1
10 4 10 6 0 11 -4 11 -10z m-50 -18 c0 -11 -37 -32 -44 -25 -15 15 -4 33 19
33 14 0 25 -3 25 -8z m80 -2 c0 -5 6 -10 13 -10 6 0 21 -7 31 -15 18 -14 17
-15 -22 -15 -38 0 -42 2 -42 25 0 14 5 25 10 25 6 0 10 -4 10 -10z m-340 -10
c0 -5 -2 -10 -4 -10 -3 0 -8 5 -11 10 -3 6 -1 10 4 10 6 0 11 -4 11 -10z m196
-27 c-10 -10 -19 5 -10 18 6 11 8 11 12 0 2 -7 1 -15 -2 -18z m102 15 c-5 -15
-48 -24 -48 -10 0 14 12 22 33 22 10 0 17 -5 15 -12z m-691 -53 l-49 -45 -96
1 -97 0 65 20 c36 11 81 24 100 29 20 5 51 16 70 24 57 25 58 19 7 -29z m413
15 c0 -23 -10 -26 -28 -8 -18 18 -15 28 8 28 13 0 20 -7 20 -20z m49 -53 c16
-31 28 -57 26 -57 -3 0 -20 16 -38 37 -24 26 -32 43 -29 60 5 29 4 31 41 -40z
m95 48 c7 -19 -3 -19 -45 0 l-34 14 36 1 c24 0 39 -5 43 -15z m60 0 c4 -13 2
-14 -14 -5 -23 13 -26 20 -6 20 8 0 16 -7 20 -15z m36 6 c0 -17 -18 -21 -24
-6 -3 9 0 15 9 15 8 0 15 -4 15 -9z m49 -29 c-3 -62 -5 -63 -61 -37 -52 24
-75 41 -67 49 2 3 26 -8 52 -25 51 -32 86 -39 48 -10 -23 17 -23 19 -5 39 22
26 34 20 33 -16z m56 18 c-3 -5 -10 -10 -16 -10 -5 0 -9 5 -9 10 0 6 7 10 16
10 8 0 12 -4 9 -10z m70 0 c3 -5 3 -16 -2 -22 -4 -7 -13 -33 -18 -58 l-11 -45
-22 49 c-21 46 -21 50 -6 68 19 20 49 24 59 8z m-297 -19 c22 -9 39 -26 52
-54 11 -22 19 -41 17 -42 -1 -2 -29 25 -62 58 -33 33 -55 58 -50 55 6 -2 25
-10 43 -17z m342 4 c0 -8 -2 -15 -4 -15 -2 0 -6 7 -10 15 -3 8 -1 15 4 15 6 0
10 -7 10 -15z m-140 -16 c0 -5 -4 -9 -10 -9 -5 0 -10 7 -10 16 0 8 5 12 10 9
6 -3 10 -10 10 -16z m-34 -247 c-24 -3 -40 7 -98 65 -57 56 -128 161 -128 189
0 3 57 -52 128 -122 123 -124 126 -129 98 -132z m160 234 c3 -13 1 -48 -5 -78
-5 -29 -13 -77 -16 -105 -7 -52 -7 -53 -41 -53 -35 0 -36 4 -13 55 8 19 18 56
42 158 12 52 23 60 33 23z m-351 -107 c101 -102 115 -120 90 -114 -16 4 -48 9
-70 12 -49 6 -57 12 -74 60 -14 39 -46 114 -63 146 -5 9 -7 17 -6 17 2 0 57
-55 123 -121z m130 81 c17 -8 32 -15 33 -16 2 -1 -6 -12 -18 -24 -23 -23 -40
-19 -40 10 0 10 -4 22 -10 25 -12 7 -14 28 -2 23 4 -2 21 -10 37 -18z m117
-10 c19 -33 17 -35 -15 -19 -29 16 -28 14 -21 33 9 23 17 20 36 -14z m-884
-62 c-35 -40 -79 -92 -98 -115 l-33 -43 -119 0 c-65 0 -118 4 -118 9 0 5 3 11
8 13 4 2 31 32 61 68 30 36 71 82 90 103 l35 37 119 0 119 0 -64 -72z m65
-119 c-4 -4 -38 -13 -75 -19 -37 -5 -75 -13 -84 -17 -16 -6 -16 -5 -3 13 8 11
48 59 89 106 l75 86 3 -81 c2 -44 -1 -84 -5 -88z m810 141 l45 -20 -20 -63
-21 -64 -56 56 -56 56 24 28 c29 32 27 32 84 7z m-282 -135 c3 -2 16 -6 30 -8
35 -6 28 -18 -31 -50 -28 -15 -94 -55 -146 -87 -51 -33 -96 -60 -100 -60 -4 0
-22 -11 -41 -26 -38 -29 -53 -25 -53 15 0 69 10 87 58 109 26 11 49 18 51 17
2 -2 -12 -23 -31 -47 -45 -57 -71 -99 -64 -105 5 -5 31 30 180 242 l89 127 27
-61 c14 -34 29 -63 31 -66z m-494 -22 c-16 -18 -30 -23 -66 -22 -32 2 -37 3
-16 6 77 9 75 7 76 81 l1 67 13 -55 c13 -52 12 -56 -8 -77z m893 -132 l115
-113 -88 3 c-70 3 -91 8 -101 22 -8 10 -26 17 -45 17 -17 0 -31 5 -31 10 0 6
-21 10 -46 10 l-47 0 7 48 c4 26 8 56 10 67 3 11 5 27 5 35 1 11 13 15 54 14
l52 -1 115 -112z m-22 98 c2 -4 21 -33 43 -64 21 -31 39 -59 39 -63 0 -4 -32
26 -70 66 -39 40 -70 75 -70 78 0 7 55 -8 58 -17z m-1118 -12 c0 -5 -81 -192
-85 -195 -4 -4 -166 67 -179 78 -4 5 -1 33 8 64 l17 56 119 0 c66 0 120 -1
120 -3z m-165 -186 c21 -12 44 -21 50 -21 6 0 39 -29 75 -65 l64 -64 -35 4
c-49 6 -140 14 -166 15 -13 0 -23 5 -23 11 0 6 -6 25 -14 42 -8 18 -23 53 -34
79 l-20 46 31 -13 c18 -8 50 -23 72 -34z m120 10 c-4 -20 -1 -39 11 -58 l17
-28 -28 27 c-26 25 -27 29 -15 57 16 39 24 40 15 2z m1020 -14 c2 -37 1 -37
-37 -37 -37 0 -38 1 -38 38 0 36 1 37 37 37 36 0 37 -1 38 -38z m75 -12 c0
-21 -5 -25 -30 -25 -25 0 -30 4 -30 25 0 21 5 25 30 25 25 0 30 -4 30 -25z
m60 -16 c0 -5 -11 -9 -25 -9 -14 0 -25 6 -25 14 0 9 8 12 25 8 14 -2 25 -8 25
-13z m70 1 c0 -5 -13 -10 -30 -10 -16 0 -30 5 -30 10 0 6 14 10 30 10 17 0 30
-4 30 -10z m70 0 c0 -5 -14 -10 -31 -10 -17 0 -28 4 -24 10 3 6 17 10 31 10
13 0 24 -4 24 -10z"/>
<path d="M2383 4083 c0 -10 5 -21 11 -25 8 -6 8 -10 0 -15 -6 -5 -11 -27 -11
-50 0 -34 3 -43 17 -43 14 0 19 10 22 45 2 25 -1 46 -6 48 -5 2 -4 12 2 24 13
23 7 33 -18 33 -9 0 -17 -8 -17 -17z"/>
<path d="M2383 3924 c-7 -20 11 -38 31 -31 9 4 12 13 9 26 -6 25 -31 28 -40 5z"/>
<path d="M2457 3934 c-4 -4 -7 -16 -7 -26 0 -13 7 -18 26 -18 21 0 25 4 22 22
-3 23 -27 35 -41 22z"/>
<path d="M2384 3865 c-7 -18 3 -35 22 -35 8 0 14 10 14 25 0 27 -27 35 -36 10z"/>
<path d="M2457 3874 c-4 -4 -7 -16 -7 -26 0 -13 7 -18 26 -18 21 0 25 4 22 22
-3 23 -27 35 -41 22z"/>
<path d="M2385 3810 c-8 -14 3 -30 21 -30 8 0 14 9 14 20 0 21 -24 28 -35 10z"/>
<path d="M2457 3814 c-16 -16 -6 -35 16 -32 12 2 22 10 22 18 0 16 -26 25 -38
14z"/>
<path d="M2384 3755 c-7 -18 3 -35 22 -35 8 0 14 10 14 25 0 27 -27 35 -36 10z"/>
<path d="M2457 3764 c-4 -4 -7 -16 -7 -26 0 -14 6 -19 23 -16 14 2 22 10 22
23 0 20 -25 32 -38 19z m20 -26 c-3 -8 -6 -5 -6 6 -1 11 2 17 5 13 3 -3 4 -12
1 -19z"/>
<path d="M2384 3695 c-7 -18 3 -35 22 -35 8 0 14 10 14 25 0 27 -27 35 -36 10z"/>
<path d="M2457 3704 c-4 -4 -7 -16 -7 -26 0 -14 6 -19 23 -16 14 2 22 10 22
23 0 20 -25 32 -38 19z"/>
<path d="M2385 3640 c-8 -13 3 -30 20 -30 14 0 27 24 18 34 -10 9 -31 7 -38
-4z"/>
<path d="M2455 3640 c-4 -7 -3 -16 3 -22 14 -14 45 -2 40 15 -6 16 -34 21 -43
7z"/>
<path d="M2384 3585 c-7 -18 3 -35 22 -35 8 0 14 10 14 25 0 27 -27 35 -36 10z"/>
<path d="M2452 3578 c2 -15 10 -23 23 -23 13 0 21 8 23 23 3 18 -1 22 -23 22
-22 0 -26 -4 -23 -22z"/>
<path d="M2383 3524 c-7 -20 11 -38 31 -31 9 4 12 13 9 26 -6 25 -31 28 -40 5z"/>
<path d="M2452 3518 c4 -30 43 -33 43 -3 0 13 -8 21 -23 23 -20 3 -23 0 -20
-20z"/>
<path d="M2384 3465 c-7 -18 3 -35 22 -35 8 0 14 10 14 25 0 27 -27 35 -36 10z"/>
<path d="M2452 3458 c2 -15 10 -23 23 -23 30 0 27 39 -3 43 -20 3 -23 0 -20
-20z"/>
<path d="M3860 3880 c0 -16 5 -30 10 -30 6 0 10 14 10 30 0 17 -4 30 -10 30
-5 0 -10 -13 -10 -30z"/>
<path d="M3910 3880 c0 -16 5 -30 10 -30 6 0 10 14 10 30 0 17 -4 30 -10 30
-5 0 -10 -13 -10 -30z"/>
<path d="M3960 3880 c0 -16 5 -30 10 -30 6 0 10 14 10 30 0 17 -4 30 -10 30
-5 0 -10 -13 -10 -30z"/>
<path d="M4000 3879 c0 -16 4 -28 9 -25 5 3 9 17 9 31 0 14 -4 25 -9 25 -5 0
-9 -14 -9 -31z"/>
<path d="M4040 3880 c0 -16 5 -30 10 -30 6 0 10 14 10 30 0 17 -4 30 -10 30
-5 0 -10 -13 -10 -30z"/>
<path d="M4090 3880 c0 -16 5 -30 10 -30 6 0 10 14 10 30 0 17 -4 30 -10 30
-5 0 -10 -13 -10 -30z"/>
<path d="M3862 3780 c0 -33 4 -60 9 -60 5 0 9 27 9 60 0 33 -4 60 -9 60 -5 0
-9 -27 -9 -60z"/>
<path d="M3910 3780 c0 -33 4 -60 10 -60 6 0 10 27 10 60 0 33 -4 60 -10 60
-6 0 -10 -27 -10 -60z"/>
<path d="M3960 3780 c0 -33 4 -60 10 -60 6 0 10 27 10 60 0 33 -4 60 -10 60
-6 0 -10 -27 -10 -60z"/>
<path d="M4000 3782 c0 -34 4 -62 8 -62 10 0 8 107 -1 117 -4 3 -7 -21 -7 -55z"/>
<path d="M4041 3780 c0 -33 5 -60 10 -60 5 0 9 27 9 60 0 33 -4 60 -9 60 -6 0
-10 -27 -10 -60z"/>
<path d="M4090 3780 c0 -33 4 -60 10 -60 6 0 10 27 10 60 0 33 -4 60 -10 60
-6 0 -10 -27 -10 -60z"/>
<path d="M3867 3703 c-11 -10 -8 -53 3 -53 6 0 10 14 10 30 0 31 -2 35 -13 23z"/>
<path d="M3910 3680 c0 -16 5 -30 10 -30 6 0 10 14 10 30 0 17 -4 30 -10 30
-5 0 -10 -13 -10 -30z"/>
<path d="M3960 3680 c0 -16 5 -30 10 -30 6 0 10 14 10 30 0 17 -4 30 -10 30
-5 0 -10 -13 -10 -30z"/>
<path d="M4000 3682 c0 -18 4 -32 9 -32 5 0 8 11 7 25 -4 38 -16 43 -16 7z"/>
<path d="M4047 3703 c-11 -10 -8 -53 3 -53 6 0 10 14 10 30 0 31 -2 35 -13 23z"/>
<path d="M4090 3680 c0 -16 5 -30 10 -30 6 0 10 14 10 30 0 17 -4 30 -10 30
-5 0 -10 -13 -10 -30z"/>
<path d="M3867 3633 c-11 -10 -8 -93 3 -93 6 0 10 23 10 50 0 51 -1 55 -13 43z"/>
<path d="M3917 3633 c-11 -10 -8 -93 3 -93 6 0 10 23 10 50 0 51 -1 55 -13 43z"/>
<path d="M3960 3590 c0 -27 5 -50 10 -50 6 0 10 23 10 50 0 28 -4 50 -10 50
-5 0 -10 -22 -10 -50z"/>
<path d="M4000 3589 c0 -29 3 -49 7 -46 9 10 10 88 1 93 -5 3 -8 -18 -8 -47z"/>
<path d="M4047 3633 c-11 -10 -8 -93 3 -93 6 0 10 23 10 50 0 51 -1 55 -13 43z"/>
<path d="M4090 3590 c0 -27 5 -50 10 -50 6 0 10 23 10 50 0 28 -4 50 -10 50
-5 0 -10 -22 -10 -50z"/>
<path d="M3860 3505 c0 -14 5 -25 10 -25 6 0 10 11 10 25 0 14 -4 25 -10 25
-5 0 -10 -11 -10 -25z"/>
<path d="M3910 3505 c0 -14 5 -25 10 -25 6 0 10 11 10 25 0 14 -4 25 -10 25
-5 0 -10 -11 -10 -25z"/>
<path d="M3960 3505 c0 -14 5 -25 10 -25 6 0 10 11 10 25 0 14 -4 25 -10 25
-5 0 -10 -11 -10 -25z"/>
<path d="M4000 3505 c0 -15 4 -24 10 -20 6 3 10 12 10 20 0 8 -4 17 -10 20 -6
4 -10 -5 -10 -20z"/>
<path d="M4040 3505 c0 -14 5 -25 10 -25 6 0 10 11 10 25 0 14 -4 25 -10 25
-5 0 -10 -11 -10 -25z"/>
<path d="M4090 3505 c0 -14 5 -25 10 -25 6 0 10 11 10 25 0 14 -4 25 -10 25
-5 0 -10 -11 -10 -25z"/>
<path d="M3860 3440 c0 -16 5 -30 10 -30 6 0 10 14 10 30 0 17 -4 30 -10 30
-5 0 -10 -13 -10 -30z"/>
<path d="M3910 3440 c0 -16 5 -30 10 -30 6 0 10 14 10 30 0 17 -4 30 -10 30
-5 0 -10 -13 -10 -30z"/>
<path d="M3960 3440 c0 -16 5 -30 10 -30 6 0 10 14 10 30 0 17 -4 30 -10 30
-5 0 -10 -13 -10 -30z"/>
<path d="M4000 3442 c0 -18 4 -32 9 -32 5 0 8 11 7 25 -4 38 -16 43 -16 7z"/>
<path d="M4040 3440 c0 -16 5 -30 10 -30 6 0 10 14 10 30 0 17 -4 30 -10 30
-5 0 -10 -13 -10 -30z"/>
<path d="M4090 3440 c0 -16 5 -30 10 -30 6 0 10 14 10 30 0 17 -4 30 -10 30
-5 0 -10 -13 -10 -30z"/>
<path d="M3867 3393 c-11 -10 -8 -43 3 -43 6 0 10 11 10 25 0 26 -2 29 -13 18z"/>
<path d="M3910 3375 c0 -14 5 -25 10 -25 6 0 10 11 10 25 0 14 -4 25 -10 25
-5 0 -10 -11 -10 -25z"/>
<path d="M3960 3375 c0 -14 5 -25 10 -25 6 0 10 11 10 25 0 14 -4 25 -10 25
-5 0 -10 -11 -10 -25z"/>
<path d="M4000 3375 c0 -15 4 -24 10 -20 6 3 10 12 10 20 0 8 -4 17 -10 20 -6
4 -10 -5 -10 -20z"/>
<path d="M4040 3375 c0 -14 5 -25 10 -25 6 0 10 11 10 25 0 14 -4 25 -10 25
-5 0 -10 -11 -10 -25z"/>
<path d="M1914 3926 c-8 -21 3 -36 27 -36 15 0 20 6 17 22 -4 27 -35 37 -44
14z"/>
<path d="M2077 3933 c-15 -15 -7 -43 13 -43 15 0 20 7 20 25 0 24 -18 34 -33
18z m23 -23 c0 -5 -2 -10 -4 -10 -3 0 -8 5 -11 10 -3 6 -1 10 4 10 6 0 11 -4
11 -10z"/>
<path d="M2147 3933 c-15 -14 -7 -43 12 -43 24 0 33 13 25 34 -6 16 -25 21
-37 9z"/>
<path d="M2217 3934 c-4 -4 -7 -16 -7 -26 0 -13 7 -18 26 -18 21 0 25 4 22 22
-3 23 -27 35 -41 22z"/>
<path d="M2288 3935 c-12 -13 5 -45 24 -45 14 0 19 6 16 22 -3 22 -27 35 -40
23z"/>
<path d="M1917 3874 c-4 -4 -7 -16 -7 -26 0 -13 7 -18 26 -18 21 0 25 4 22 22
-3 23 -27 35 -41 22z"/>
<path d="M1990 3856 c0 -20 5 -26 21 -26 15 0 20 5 17 22 -5 34 -38 37 -38 4z"/>
<path d="M2077 3873 c-15 -15 -7 -43 13 -43 15 0 20 7 20 25 0 24 -18 34 -33
18z m23 -23 c0 -5 -2 -10 -4 -10 -3 0 -8 5 -11 10 -3 6 -1 10 4 10 6 0 11 -4
11 -10z"/>
<path d="M2147 3873 c-15 -14 -7 -43 12 -43 18 0 35 33 23 44 -7 8 -27 7 -35
-1z"/>
<path d="M2217 3874 c-4 -4 -7 -16 -7 -26 0 -13 7 -18 26 -18 21 0 25 4 22 22
-3 23 -27 35 -41 22z"/>
<path d="M2290 3856 c0 -20 5 -26 21 -26 15 0 20 5 17 22 -5 34 -38 37 -38 4z"/>
<path d="M1915 3811 c-9 -16 3 -31 26 -31 14 0 19 6 17 17 -4 20 -33 29 -43
14z"/>
<path d="M1990 3801 c0 -15 6 -21 21 -21 25 0 22 33 -4 38 -12 2 -17 -3 -17
-17z"/>
<path d="M2077 3813 c-14 -13 -6 -33 13 -33 13 0 20 7 20 20 0 19 -20 27 -33
13z"/>
<path d="M2147 3814 c-16 -16 -6 -35 16 -32 12 2 22 10 22 18 0 16 -26 25 -38
14z"/>
<path d="M2217 3814 c-16 -16 -6 -34 19 -34 19 0 25 5 22 17 -3 19 -29 29 -41
17z"/>
<path d="M2287 3806 c-7 -18 1 -26 25 -26 13 0 18 6 16 17 -4 22 -34 29 -41 9z"/>
<path d="M1914 3756 c-8 -21 3 -36 27 -36 15 0 20 6 17 22 -4 27 -35 37 -44
14z m23 -18 c-3 -8 -6 -5 -6 6 -1 11 2 17 5 13 3 -3 4 -12 1 -19z"/>
<path d="M1990 3746 c0 -20 5 -26 21 -26 15 0 20 5 17 22 -5 34 -38 37 -38 4z"/>
<path d="M2070 3745 c0 -18 5 -25 20 -25 15 0 20 7 20 25 0 18 -5 25 -20 25
-15 0 -20 -7 -20 -25z"/>
<path d="M2140 3745 c0 -31 35 -35 43 -6 6 24 0 31 -25 31 -13 0 -18 -7 -18
-25z m27 -7 c-3 -8 -6 -5 -6 6 -1 11 2 17 5 13 3 -3 4 -12 1 -19z"/>
<path d="M2217 3764 c-4 -4 -7 -16 -7 -26 0 -13 7 -18 26 -18 21 0 25 4 22 22
-3 23 -27 35 -41 22z"/>
<path d="M2290 3746 c0 -20 5 -26 21 -26 15 0 20 5 17 22 -5 34 -38 37 -38 4z"/>
<path d="M1914 3696 c-8 -21 3 -36 27 -36 15 0 20 6 17 22 -4 27 -35 37 -44
14z"/>
<path d="M1990 3686 c0 -20 5 -26 21 -26 15 0 20 5 17 22 -5 34 -38 37 -38 4z"/>
<path d="M2070 3685 c0 -18 5 -25 20 -25 15 0 20 7 20 25 0 18 -5 25 -20 25
-15 0 -20 -7 -20 -25z"/>
<path d="M2140 3685 c0 -22 4 -26 23 -23 14 2 22 10 22 23 0 13 -8 21 -22 23
-19 3 -23 -1 -23 -23z"/>
<path d="M2217 3704 c-4 -4 -7 -16 -7 -26 0 -13 7 -18 26 -18 21 0 25 4 22 22
-3 23 -27 35 -41 22z"/>
<path d="M2286 3701 c-10 -16 5 -41 26 -41 14 0 19 6 16 22 -3 24 -32 36 -42
19z"/>
<path d="M1915 3640 c-4 -7 -3 -16 3 -22 14 -14 45 -2 40 15 -6 16 -34 21 -43
7z"/>
<path d="M1990 3630 c0 -13 7 -20 20 -20 13 0 20 7 20 20 0 13 -7 20 -20 20
-13 0 -20 -7 -20 -20z"/>
<path d="M2070 3630 c0 -13 7 -20 20 -20 13 0 20 7 20 20 0 13 -7 20 -20 20
-13 0 -20 -7 -20 -20z"/>
<path d="M2140 3630 c0 -16 5 -21 23 -18 12 2 22 10 22 18 0 8 -10 16 -22 18
-18 3 -23 -2 -23 -18z"/>
<path d="M2215 3640 c-4 -7 -3 -16 3 -22 14 -14 45 -2 40 15 -6 16 -34 21 -43
7z"/>
<path d="M2287 3643 c-3 -5 -2 -15 3 -22 10 -17 43 -6 38 12 -6 15 -34 22 -41
10z"/>
<path d="M1913 3584 c-3 -8 -1 -20 5 -26 16 -16 42 -2 42 22 0 24 -38 28 -47
4z"/>
<path d="M1990 3574 c0 -33 33 -30 38 4 3 17 -2 22 -17 22 -16 0 -21 -6 -21
-26z"/>
<path d="M2070 3575 c0 -18 5 -25 20 -25 15 0 20 7 20 25 0 18 -5 25 -20 25
-15 0 -20 -7 -20 -25z"/>
<path d="M2140 3575 c0 -22 4 -26 23 -23 14 2 22 10 22 23 0 13 -8 21 -22 23
-19 3 -23 -1 -23 -23z"/>
<path d="M2213 3584 c-3 -8 -1 -20 5 -26 16 -16 42 -2 42 22 0 24 -38 28 -47
4z"/>
<path d="M2290 3574 c0 -33 33 -30 38 4 3 17 -2 22 -17 22 -16 0 -21 -6 -21
-26z"/>
<path d="M1913 3524 c-3 -8 -1 -20 5 -26 16 -16 42 -2 42 22 0 24 -38 28 -47
4z"/>
<path d="M1990 3514 c0 -33 33 -30 38 4 3 17 -2 22 -17 22 -16 0 -21 -6 -21
-26z"/>
<path d="M2070 3515 c0 -18 5 -25 20 -25 15 0 20 7 20 25 0 18 -5 25 -20 25
-15 0 -20 -7 -20 -25z m30 5 c0 -5 -5 -10 -11 -10 -5 0 -7 5 -4 10 3 6 8 10
11 10 2 0 4 -4 4 -10z"/>
<path d="M2140 3515 c0 -18 5 -25 18 -25 25 0 31 7 25 31 -8 29 -43 25 -43 -6z"/>
<path d="M2212 3518 c2 -15 10 -23 23 -23 13 0 21 8 23 23 3 18 -1 22 -23 22
-22 0 -26 -4 -23 -22z"/>
<path d="M2290 3514 c0 -33 33 -30 38 4 3 17 -2 22 -17 22 -16 0 -21 -6 -21
-26z"/>
<path d="M1914 3465 c-8 -20 4 -35 27 -35 14 0 19 7 19 25 0 18 -5 25 -20 25
-11 0 -23 -7 -26 -15z"/>
<path d="M1990 3455 c0 -18 5 -25 20 -25 15 0 20 7 20 25 0 18 -5 25 -20 25
-15 0 -20 -7 -20 -25z"/>
<path d="M2070 3455 c0 -18 5 -25 20 -25 15 0 20 7 20 25 0 18 -5 25 -20 25
-15 0 -20 -7 -20 -25z m30 5 c0 -5 -5 -10 -11 -10 -5 0 -7 5 -4 10 3 6 8 10
11 10 2 0 4 -4 4 -10z"/>
<path d="M2140 3455 c0 -22 4 -26 23 -23 14 2 22 10 22 23 0 13 -8 21 -22 23
-19 3 -23 -1 -23 -23z"/>
<path d="M2212 3458 c2 -15 10 -23 23 -23 13 0 21 8 23 23 3 18 -1 22 -23 22
-22 0 -26 -4 -23 -22z"/>
<path d="M2288 3474 c-12 -11 5 -45 21 -42 24 5 27 48 3 48 -10 0 -21 -3 -24
-6z"/>
<path d="M2238 3210 c-64 -42 -86 -71 -32 -41 51 28 103 70 88 71 -6 0 -31
-14 -56 -30z"/>
<path d="M2806 1698 c3 -5 10 -6 15 -3 13 9 11 12 -6 12 -8 0 -12 -4 -9 -9z"/>
<path d="M2136 1418 c3 -5 10 -6 15 -3 13 9 11 12 -6 12 -8 0 -12 -4 -9 -9z"/>
<path d="M3250 1521 c0 -6 4 -13 10 -16 6 -3 7 1 4 9 -7 18 -14 21 -14 7z"/>
<path d="M2937 1440 c-9 -11 -13 -20 -7 -20 5 0 14 9 20 20 6 11 9 20 8 20 -2
0 -11 -9 -21 -20z"/>
<path d="M805 4450 c-5 -16 7 -40 44 -93 28 -40 67 -98 88 -129 21 -31 40 -57
43 -58 3 0 11 9 18 20 11 18 9 26 -19 60 l-32 39 32 50 32 49 45 -15 c42 -14
46 -14 64 2 25 22 25 34 3 33 -10 0 -70 12 -133 26 -169 40 -177 40 -185 16z
m120 -45 c11 -1 26 -3 33 -4 8 -1 5 -12 -10 -36 -13 -19 -25 -35 -28 -34 -5 0
-61 76 -68 92 -2 4 9 2 25 -4 15 -6 37 -12 48 -14z"/>
<path d="M5230 4298 c-30 -16 -90 -48 -132 -70 -43 -23 -78 -44 -78 -48 0 -11
83 -160 89 -160 3 0 12 4 20 9 11 7 7 21 -22 74 l-36 65 27 11 c15 6 68 32
119 58 85 45 91 50 80 70 l-12 21 -55 -30z"/>
<path d="M5076 4268 c3 -5 10 -6 15 -3 13 9 11 12 -6 12 -8 0 -12 -4 -9 -9z"/>
<path d="M4287 4259 c7 -7 15 -10 18 -7 3 3 -2 9 -12 12 -14 6 -15 5 -6 -5z"/>
<path d="M5454 4145 c0 -13 3 -22 7 -19 8 4 6 30 -2 38 -3 3 -5 -5 -5 -19z"/>
<path d="M590 4075 c-5 -13 -25 -58 -45 -100 -40 -86 -41 -91 -19 -99 21 -8
19 -9 41 41 l18 41 50 -25 c124 -60 188 -84 197 -71 13 22 9 27 -44 52 -29 13
-83 38 -120 54 l-67 31 22 41 c19 35 20 42 7 50 -23 15 -30 12 -40 -15z"/>
<path d="M5357 3817 c-109 -33 -136 -45 -131 -57 3 -8 7 -19 8 -25 3 -12 25
-93 32 -117 7 -24 44 -24 44 0 0 9 -9 42 -20 71 -11 30 -19 55 -17 56 1 1 56
17 122 36 104 30 120 37 123 57 4 28 4 28 -161 -21z"/>
<path d="M420 3625 c0 -8 0 -18 1 -22 1 -7 82 -30 164 -48 11 -3 42 -11 68
-19 47 -14 48 -14 56 7 5 12 8 23 6 25 -3 3 -276 72 -287 72 -4 0 -8 -7 -8
-15z"/>
<path d="M5407 3340 c-56 -31 -75 -68 -67 -130 4 -35 14 -59 31 -76 25 -25 89
-49 89 -34 0 5 3 15 6 24 4 12 0 16 -15 16 -52 0 -89 78 -61 129 11 22 79 51
120 51 38 0 80 -37 86 -77 4 -26 0 -38 -20 -58 -21 -21 -24 -30 -16 -46 14
-24 14 -24 44 7 45 50 41 137 -9 184 -36 34 -134 39 -188 10z"/>
<path d="M355 3243 c-12 -151 -12 -148 11 -151 13 -2 22 2 21 10 0 7 1 29 1
49 l2 36 53 -8 c28 -4 86 -10 128 -13 70 -5 77 -4 82 13 5 22 -16 28 -134 37
-137 10 -124 5 -121 57 3 42 1 47 -16 47 -18 0 -21 -9 -27 -77z"/>
<path d="M5536 3107 c3 -10 9 -15 12 -12 3 3 0 11 -7 18 -10 9 -11 8 -5 -6z"/>
<path d="M457 2177 c-3 -8 1 -14 8 -14 7 0 11 6 8 14 -3 7 -6 13 -8 13 -2 0
-5 -6 -8 -13z"/>
<path d="M529 2023 c-13 -16 -12 -17 4 -4 9 7 17 15 17 17 0 8 -8 3 -21 -13z"/>
<path d="M3500 2011 c0 -6 4 -13 10 -16 6 -3 7 1 4 9 -7 18 -14 21 -14 7z"/>
<path d="M2016 1468 c3 -5 10 -6 15 -3 13 9 11 12 -6 12 -8 0 -12 -4 -9 -9z"/>
<path d="M1075 1200 c10 -11 20 -20 23 -20 3 0 -3 9 -13 20 -10 11 -20 20 -23
20 -3 0 3 -9 13 -20z"/>
<path d="M4420 836 c0 -2 8 -10 18 -17 15 -13 16 -12 3 4 -13 16 -21 21 -21
13z"/>
<path d="M2216 502 c-3 -5 1 -9 9 -9 8 0 12 4 9 9 -3 4 -7 8 -9 8 -2 0 -6 -4
-9 -8z"/>
<path d="M1660 5700 c-9 -6 -10 -10 -3 -10 6 0 15 5 18 10 8 12 4 12 -15 0z"/>
<path d="M4696 5468 c3 -5 10 -6 15 -3 13 9 11 12 -6 12 -8 0 -12 -4 -9 -9z"/>
<path d="M5487 4674 c-3 -4 1 -16 9 -28 8 -13 11 -26 7 -31 -5 -4 -2 -5 5 -1
9 6 10 12 0 29 -7 12 -11 25 -10 30 2 9 -2 9 -11 1z"/>
<path d="M490 4666 c0 -2 8 -10 18 -17 15 -13 16 -12 3 4 -13 16 -21 21 -21
13z"/>
<path d="M83 3505 c0 -8 4 -12 9 -9 5 3 6 10 3 15 -9 13 -12 11 -12 -6z"/>
</g>
</svg>
